<!-- Generated by IcoMoon.io -->
<svg version="1.1" xmlns="http://www.w3.org/2000/svg" width="32" height="32" viewBox="0 0 32 32">
<title>logo-amex</title>
<path d="M1.438 24v-8.563h1.438l0.313-0.75h0.688l0.313 0.75h2.75v-0.563l0.25 0.563h1.438l0.25-0.563v0.563h6.813v-1.25h0.125c0.125 0 0.125 0.063 0.125 0.188v1.063h3.5v-0.313c0.813 0.438 1.938 0.313 2.813 0.313l0.313-0.75h0.75l0.313 0.75h2.813v-0.75l0.438 0.75h2.313v-4.75h-2.25v0.563l-0.313-0.563h-2.375v0.563l-0.25-0.563h-3.188c-0.438 0-0.938 0.063-1.375 0.25v-0.25h-2.125v0.25c-0.25-0.188-0.625-0.25-0.938-0.25h-7.938l-0.563 1.188-0.5-1.188h-2.5v0.563l-0.313-0.563h-2.125l-1 2.25v-4.938h29.125v8.563h-1.563c-0.313 0-0.688 0.063-1 0.25v-0.25h-2.25c-0.313 0-0.75 0.063-0.938 0.25v-0.25h-4v0.25c-0.313-0.188-0.75-0.25-1.125-0.25h-2.625v0.25c-0.25-0.25-0.813-0.25-1.125-0.25h-3l-0.688 0.75-0.625-0.75h-4.375v4.75h4.313l0.688-0.75 0.688 0.75h2.625v-1.125h0.313c0.375 0 0.75 0 1.125-0.125v1.25h2.188v-1.25h0.125c0.125 0 0.125 0 0.125 0.188v1.063h6.688c0.375 0 0.813-0.063 1.125-0.313v0.313h2.125c0.375 0 0.813 0 1.188-0.188v2.875zM10.25 14.75h-0.813v-2.688l-1.188 2.688h-0.688l-1.188-2.688v2.688h-1.688l-0.313-0.75h-1.688l-0.313 0.75h-0.938l1.5-3.438h1.188l1.438 3.25v-3.25h1.313l1.063 2.375 1-2.375h1.313zM4.063 13.313l-0.563-1.375-0.563 1.375zM14.875 19.5v1.188h-1.625l-1-1.188-1.063 1.188h-3.188v-3.438h3.25l1 1.125 1.063-1.125h2.625c0.75 0 1.375 0.25 1.375 1.125 0 1.375-1.5 1.125-2.438 1.125zM11.75 18.938l-0.875-1h-2.063v0.625h1.75v0.688h-1.75v0.688h2l0.938-1zM13.625 14.75h-2.75v-3.438h2.75v0.75h-1.938v0.625h1.875v0.688h-1.875v0.688h1.938zM14.063 20.313v-2.688l-1.25 1.313zM16.875 13.188c0.5 0.188 0.563 0.438 0.563 0.875v0.688h-0.813c0-0.75 0.188-1.25-0.75-1.25h-0.875v1.25h-0.813v-3.438l1.938 0.063c0.688 0 1.375 0.063 1.375 0.875 0 0.375-0.25 0.813-0.625 0.938zM15.938 17.938h-1.063v0.875h1.063c0.25 0 0.5-0.125 0.5-0.438s-0.25-0.438-0.5-0.438zM16.063 12.063h-1.063v0.75h1c0.313 0 0.563-0.063 0.563-0.375s-0.25-0.375-0.5-0.375zM20.375 19.063c0.5 0.188 0.563 0.5 0.563 0.938v0.688h-0.813v-0.625c0-0.563-0.188-0.625-0.75-0.625h-0.875v1.25h-0.813v-3.438h1.938c0.625 0 1.375 0.125 1.375 0.938 0 0.375-0.25 0.75-0.625 0.875zM18.75 14.75h-0.813v-3.438h0.813zM19.563 17.938h-1.063v0.75h1.063c0.25 0 0.5-0.063 0.5-0.375s-0.25-0.375-0.5-0.375zM28.438 14.75h-1.125l-1.563-2.563v2.563h-1.688l-0.313-0.75h-1.688l-0.313 0.75h-0.938c-1.125 0-1.625-0.563-1.625-1.688s0.5-1.75 1.688-1.75h0.813v0.75c-0.875 0-1.688-0.188-1.688 1 0 0.563 0.125 1 0.813 1h0.375l1.125-2.688h1.25l1.375 3.188v-3.188h1.25l1.438 2.375v-2.375h0.813v3.375zM24.188 20.688h-2.75v-3.438h2.75v0.688h-1.938v0.625h1.875v0.688h-1.875v0.688h1.938zM23.5 13.313l-0.563-1.375-0.563 1.375zM26.25 20.688h-1.625v-0.75h1.625c0.188 0 0.438-0.063 0.438-0.313 0-0.75-2.125 0.25-2.125-1.375 0-0.688 0.5-1 1.188-1h1.625v0.688h-1.5c-0.25 0-0.438 0.063-0.438 0.313 0 0.75 2.063-0.313 2.063 1.313 0 0.813-0.5 1.125-1.25 1.125zM30.563 20.188c-0.25 0.375-0.75 0.5-1.125 0.5h-1.563v-0.75h1.563c0.188 0 0.438-0.063 0.438-0.313 0-0.75-2.125 0.25-2.125-1.375 0-0.688 0.563-1 1.188-1h1.625v0.688h-1.5c-0.25 0-0.438 0.063-0.438 0.313 0 0.625 1.375 0 1.938 0.688v1.25z"></path>
</svg>
