<!-- Generated by IcoMoon.io -->
<svg version="1.1" xmlns="http://www.w3.org/2000/svg" width="32" height="32" viewBox="0 0 32 32">
<title>notebook-m-icon</title>
<path d="M27.625 32h-21.813c-0.438 0-0.75-0.313-0.75-0.75v-30.5c0-0.438 0.313-0.75 0.75-0.75h21.813c0.438 0 0.75 0.313 0.75 0.75v30.5c0 0.438-0.313 0.75-0.75 0.75zM6.563 30.563h20.375v-29.125h-20.375zM7.25 5.813h-2.875c-0.438 0-0.75-0.313-0.75-0.75s0.313-0.688 0.75-0.688h2.875c0.438 0 0.75 0.25 0.75 0.688s-0.313 0.75-0.75 0.75zM7.25 10.188h-2.875c-0.438 0-0.75-0.313-0.75-0.75s0.313-0.688 0.75-0.688h2.875c0.438 0 0.75 0.25 0.75 0.688s-0.313 0.75-0.75 0.75zM7.25 14.563h-2.875c-0.438 0-0.75-0.313-0.75-0.75s0.313-0.75 0.75-0.75h2.875c0.438 0 0.75 0.313 0.75 0.75s-0.313 0.75-0.75 0.75zM7.25 18.938h-2.875c-0.438 0-0.75-0.313-0.75-0.75s0.313-0.75 0.75-0.75h2.875c0.438 0 0.75 0.313 0.75 0.75s-0.313 0.75-0.75 0.75zM7.25 23.25h-2.875c-0.438 0-0.75-0.25-0.75-0.688s0.313-0.75 0.75-0.75h2.875c0.438 0 0.75 0.313 0.75 0.75s-0.313 0.688-0.75 0.688zM7.25 27.625h-2.875c-0.438 0-0.75-0.25-0.75-0.688s0.313-0.75 0.75-0.75h2.875c0.438 0 0.75 0.313 0.75 0.75s-0.313 0.688-0.75 0.688zM13.063 21.5v-11h2.188l2.625 7.813c0.313 0.75 0.438 1.313 0.625 1.625 0.125-0.438 0.25-1 0.563-1.75l2.625-7.688h1.875v11h-1.438v-9.313l-3.188 9.188h-1.188l-3.188-9.313v9.438zM9.438 19.5h2.063v2h-2.063z"></path>
</svg>
