<?xml version="1.0" encoding="utf-8"?>
<!-- Generator: Adobe Illustrator 16.0.0, SVG Export Plug-In . SVG Version: 6.00 Build 0)  -->
<!DOCTYPE svg PUBLIC "-//W3C//DTD SVG 1.1//EN" "http://www.w3.org/Graphics/SVG/1.1/DTD/svg11.dtd">
<svg version="1.1" id="Layer_1" xmlns="http://www.w3.org/2000/svg" xmlns:xlink="http://www.w3.org/1999/xlink" x="0px" y="0px"
	 width="1360px" height="1360px" viewBox="0 0 1360 1360" enable-background="new 0 0 1360 1360" xml:space="preserve">
<path fill="#FFFFFF" d="M855.254,790.532l-37.135-16.591c-0.04-0.019-0.081-0.03-0.121-0.046c-0.055-0.021-0.107-0.043-0.162-0.061
	c-0.057-0.018-0.113-0.031-0.17-0.045c-0.053-0.014-0.105-0.027-0.158-0.038c-0.06-0.011-0.119-0.018-0.179-0.024
	c-0.052-0.007-0.104-0.014-0.157-0.018c-0.061-0.004-0.121-0.003-0.181-0.003c-0.053,0.001-0.104,0-0.157,0.003
	c-0.061,0.004-0.119,0.012-0.18,0.02c-0.053,0.007-0.104,0.012-0.156,0.021c-0.059,0.012-0.117,0.027-0.177,0.042
	c-0.052,0.013-0.103,0.025-0.153,0.041c-0.058,0.019-0.113,0.041-0.17,0.063c-0.039,0.016-0.078,0.026-0.117,0.044l-37.135,16.591
	c-0.988,0.441-1.624,1.423-1.624,2.505v42.066c0,1.063,0.613,2.029,1.573,2.481l37.135,17.506c0.006,0.003,0.012,0.005,0.018,0.007
	c0.082,0.038,0.164,0.071,0.25,0.102c0.019,0.007,0.038,0.013,0.057,0.019c0.072,0.023,0.145,0.044,0.219,0.062
	c0.016,0.004,0.033,0.009,0.049,0.012c0.082,0.018,0.165,0.031,0.248,0.041c0.023,0.003,0.049,0.006,0.072,0.008
	c0.083,0.008,0.166,0.013,0.25,0.014c0.002,0,0.004,0,0.006,0H817c0.001,0,0.002,0,0.002,0c0.002,0,0.004,0,0.007,0
	c0.083-0.001,0.166-0.006,0.249-0.014c0.023-0.002,0.049-0.005,0.073-0.008c0.083-0.011,0.165-0.023,0.246-0.041
	c0.018-0.003,0.034-0.009,0.052-0.013c0.072-0.017,0.145-0.037,0.216-0.061c0.02-0.006,0.04-0.012,0.06-0.02
	c0.084-0.029,0.166-0.063,0.246-0.1c0.007-0.003,0.014-0.005,0.02-0.008l37.135-17.506c0.961-0.452,1.573-1.419,1.573-2.481v-42.066
	C856.878,791.955,856.242,790.974,855.254,790.532z M851.391,830.831l-13.438-6.225c-2.421,0.948-4.859,1.151-6.923,1.151
	c-0.528,0-1.077-0.014-1.673-0.041c-0.111-0.006-0.222-0.008-0.33-0.008c-0.507,0-0.957,0.072-1.381,0.171l19.984,9.257L817,849.576
	l-30.631-14.439l10.344-4.791c-0.796-0.619-1.459-1.412-1.898-2.356c-0.382-0.82-0.573-1.682-0.598-2.535l-11.607,5.377v-36.015
	l31.647-14.14v15.256c0.038,0,0.08,0.003,0.118,0.003c2.863,0,4.104-0.491,5.369-3.279v-11.979l31.646,14.14V830.831z"/>
<g>
	<path fill="#FFFFFF" d="M792.381,818.253c-0.931,0-1.82-0.527-2.24-1.425c-0.574-1.233-0.043-2.698,1.186-3.277l0,0
		c0.047-0.022,4.723-2.294,9.344-8.231c0.714-1.17,4.561-6.783,12.392-6.417c4.753,0.222,7.546-0.564,9.62-5.472
		c0.53-1.256,1.979-1.845,3.235-1.313c1.255,0.531,1.843,1.979,1.313,3.235c-3.335,7.889-8.891,8.738-14.399,8.482
		c-5.511-0.258-7.93,4.023-7.954,4.066c-0.061,0.11-0.131,0.217-0.207,0.318c-5.436,7.04-11.014,9.692-11.248,9.802
		C793.084,818.18,792.729,818.253,792.381,818.253z"/>
</g>
<g>
	<path fill="#FFFFFF" d="M800.68,827.728c-0.93,0-1.82-0.528-2.238-1.427c-0.574-1.233-0.044-2.697,1.186-3.276
		c0.092-0.044,4.744-2.321,9.343-8.232c0.715-1.168,4.567-6.781,12.392-6.415c4.754,0.222,7.547-0.565,9.621-5.473
		c0.53-1.255,1.979-1.843,3.234-1.313c1.256,0.531,1.844,1.979,1.313,3.234c-3.334,7.891-8.891,8.741-14.397,8.483
		c-5.509-0.253-7.931,4.022-7.954,4.066c-0.062,0.111-0.131,0.217-0.209,0.318c-5.434,7.04-11.013,9.693-11.247,9.802
		C801.385,827.652,801.029,827.728,800.68,827.728z"/>
</g>
<g>
	<path fill="#FFFFFF" d="M809.045,837.138c-0.93,0-1.82-0.527-2.24-1.425c-0.574-1.233-0.043-2.698,1.187-3.276
		c0.067-0.033,4.731-2.308,9.343-8.234c0.715-1.168,4.564-6.784,12.393-6.416c4.753,0.223,7.545-0.564,9.62-5.471
		c0.531-1.258,1.979-1.845,3.235-1.313c1.256,0.53,1.844,1.979,1.313,3.233c-3.334,7.891-8.891,8.741-14.398,8.484
		c-5.51-0.254-7.931,4.022-7.954,4.066c-0.062,0.11-0.132,0.217-0.208,0.317c-5.434,7.041-11.013,9.694-11.247,9.804
		C809.749,837.063,809.395,837.138,809.045,837.138z"/>
</g>
<path fill="#FFFFFF" d="M1066.344,423.203l-376.77-168.33c-0.406-0.188-0.822-0.308-1.229-0.466
	c-0.555-0.208-1.09-0.437-1.645-0.615c-0.574-0.178-1.148-0.317-1.725-0.456c-0.533-0.139-1.07-0.277-1.605-0.387
	c-0.604-0.109-1.207-0.178-1.813-0.247c-0.525-0.07-1.06-0.139-1.594-0.179c-0.615-0.04-1.229-0.03-1.834-0.03
	c-0.534,0.01-1.061,0-1.595,0.03c-0.615,0.04-1.209,0.119-1.822,0.198c-0.536,0.07-1.062,0.119-1.587,0.219
	c-0.594,0.119-1.188,0.277-1.794,0.425c-0.523,0.129-1.04,0.258-1.556,0.417c-0.584,0.188-1.148,0.416-1.724,0.644
	c-0.396,0.159-0.792,0.268-1.188,0.446l-376.77,168.33c-10.028,4.479-16.478,14.437-16.478,25.415v426.806
	c0,10.779,6.222,20.59,15.961,25.178l376.771,177.615c0.06,0.029,0.12,0.047,0.179,0.068c0.832,0.385,1.665,0.723,2.536,1.029
	c0.189,0.07,0.387,0.129,0.574,0.189c0.735,0.238,1.467,0.447,2.221,0.625c0.158,0.039,0.337,0.09,0.494,0.119
	c0.834,0.178,1.676,0.316,2.518,0.414c0.238,0.031,0.496,0.061,0.733,0.08c0.842,0.08,1.685,0.129,2.536,0.139
	c0.021,0,0.04,0,0.061,0h0.019c0.011,0,0.021,0,0.021,0c0.019,0,0.038,0,0.067,0c0.844-0.01,1.686-0.059,2.527-0.139
	c0.237-0.02,0.495-0.049,0.743-0.08c0.842-0.107,1.676-0.236,2.498-0.414c0.178-0.029,0.346-0.09,0.523-0.129
	c0.734-0.168,1.469-0.377,2.191-0.615c0.197-0.061,0.406-0.119,0.604-0.197c0.852-0.299,1.686-0.637,2.498-1.012
	c0.068-0.031,0.139-0.049,0.197-0.078l376.77-177.615c9.749-4.588,15.962-14.398,15.962-25.178V448.618
	C1082.821,437.64,1076.37,427.682,1066.344,423.203z M1027.146,832.076L890.811,768.92c-24.563,9.621-49.303,11.682-70.24,11.682
	c-5.359,0-10.928-0.139-16.973-0.416c-1.131-0.059-2.248-0.08-3.348-0.08c-5.143,0-9.711,0.734-14.012,1.734l202.764,93.922
	l-310.783,146.502L367.438,875.762l104.948-48.611c-8.075-6.281-14.803-14.326-19.261-23.908
	c-3.875-8.322-5.817-17.063-6.065-25.721l-117.77,54.555V466.671l321.097-143.461v154.787c0.388,0,0.813,0.029,1.199,0.029
	c29.051,0,41.644-4.984,54.476-33.271V323.209l321.084,143.461V832.076z"/>
<g>
	<path fill="#FFFFFF" d="M428.433,704.459c-9.443,0-18.468-5.352-22.729-14.457c-5.827-12.514-0.437-27.376,12.028-33.252l0,0
		c0.476-0.228,47.916-23.274,94.801-83.516c7.245-11.87,46.272-68.822,125.728-65.106c48.222,2.249,76.562-5.728,97.605-55.516
		c5.381-12.743,20.074-18.717,32.828-13.327c12.73,5.39,18.695,20.084,13.324,32.826c-33.836,80.039-90.205,88.659-146.096,86.063
		c-55.913-2.615-80.455,40.822-80.704,41.258c-0.613,1.119-1.326,2.199-2.101,3.229C497.969,674.089,441.372,701,438.995,702.109
		C435.567,703.715,431.96,704.459,428.433,704.459z"/>
</g>
<g>
	<path fill="#FFFFFF" d="M512.633,800.586c-9.434,0-18.47-5.359-22.711-14.475c-5.825-12.516-0.445-27.365,12.03-33.242
		c0.931-0.447,48.134-23.551,94.792-83.526c7.253-11.851,46.341-68.803,125.725-65.087c48.232,2.249,76.572-5.737,97.617-55.526
		c5.379-12.732,20.074-18.697,32.816-13.327c12.742,5.39,18.705,20.084,13.316,32.816c-33.826,80.059-90.205,88.688-146.076,86.072
		c-55.894-2.566-80.466,40.811-80.704,41.258c-0.624,1.129-1.328,2.199-2.12,3.23c-55.13,71.428-111.736,98.348-114.114,99.447
		C519.787,799.824,516.181,800.586,512.633,800.586z"/>
</g>
<g>
	<path fill="#FFFFFF" d="M597.506,896.063c-9.433,0-18.468-5.35-22.73-14.455c-5.825-12.516-0.436-27.377,12.039-33.242
		c0.685-0.338,48.005-23.414,94.792-83.547c7.252-11.852,46.311-68.832,125.736-65.098c48.223,2.26,76.551-5.727,97.605-55.505
		c5.391-12.761,20.074-18.716,32.824-13.325c12.744,5.38,18.709,20.083,13.318,32.806c-33.828,80.058-90.205,88.689-146.086,86.083
		c-55.902-2.576-80.465,40.811-80.703,41.256c-0.623,1.121-1.338,2.199-2.111,3.221c-55.129,71.438-111.735,98.357-114.113,99.469
		C604.65,895.311,601.053,896.063,597.506,896.063z"/>
</g>
</svg>
