<!-- Generated by IcoMoon.io -->
<svg version="1.1" xmlns="http://www.w3.org/2000/svg" width="32" height="32" viewBox="0 0 32 32">
<title>plot-polar-filled</title>
<path d="M19.188 7.375c2.25 0.125 4.5 1.063 6.25 2.563l-6.25 6.313zM20.25 16.938h6.063c-0.125-1.25-0.75-3.125-1.75-4.313zM25.875 23.938c1.375-1.625 2.25-3.438 2.375-5.688h-8zM19.188 29c2.563-0.125 4.938-1.125 6.813-2.813l-6.813-6.813zM17.938 30.438v-11.063l-7.813 7.813c2.188 1.938 4.938 3.063 7.813 3.25zM4.875 18.25c0.188 3.188 1.438 6.313 3.625 8.75l8.625-8.75zM7.625 7.375c-2.375 2.688-3.75 6.375-3.875 9.563h13.375zM17.938 1.625c-3.563 0.188-7.438 1.688-10.25 4.313l10.25 10.313z"></path>
</svg>
