<!-- Generated by IcoMoon.io -->
<svg version="1.1" xmlns="http://www.w3.org/2000/svg" width="32" height="32" viewBox="0 0 32 32">
<title>pie-shaded</title>
<path d="M17.5 19c-0.188 0.375-0.625 0.5-1 0.313-0.125-0.063-0.188-0.125-0.25-0.188l0.813-1.188c0.063 0 0.125 0.063 0.188 0.063 0.375 0.188 0.438 0.688 0.25 1zM19.5 24.75c-0.375-0.188-0.813-0.063-1.063 0.313-0.188 0.313-0.063 0.813 0.313 1 0.313 0.188 0.813 0.063 1-0.25 0.188-0.375 0.063-0.813-0.25-1.063zM17.25 27c-0.375-0.188-0.875-0.063-1.063 0.313-0.188 0.313-0.063 0.813 0.313 1 0.313 0.188 0.813 0.063 1-0.25 0.188-0.375 0.063-0.813-0.25-1.063zM17.25 22.5c-0.375-0.188-0.813-0.063-1.063 0.313-0.188 0.313-0.063 0.813 0.313 1s0.813 0.063 1-0.25c0.188-0.375 0.125-0.813-0.25-1.063zM19.5 11.188c-0.313-0.188-0.813-0.063-1 0.313-0.188 0.313-0.063 0.813 0.25 1 0.375 0.188 0.813 0.063 1.063-0.25 0.188-0.375 0.063-0.813-0.313-1.063zM19.5 15.75c-0.313-0.25-0.813-0.125-1 0.25s-0.063 0.813 0.25 1c0.375 0.25 0.813 0.125 1.063-0.25 0.188-0.375 0.063-0.813-0.313-1zM19.5 20.25c-0.375-0.188-0.813-0.063-1 0.313-0.25 0.313-0.125 0.813 0.25 1s0.813 0.063 1-0.25c0.25-0.375 0.125-0.875-0.25-1.063zM12.688 27.063c-0.313-0.25-0.813-0.125-1 0.25s-0.063 0.813 0.25 1c0.375 0.25 0.875 0.125 1.063-0.25s0.063-0.813-0.313-1zM15 24.75c-0.375-0.188-0.813-0.063-1.063 0.313-0.188 0.375-0.063 0.813 0.313 1 0.313 0.25 0.813 0.125 1-0.25s0.063-0.813-0.25-1.063zM18.75 8c0.375 0.188 0.813 0.063 1-0.313 0.25-0.375 0.125-0.813-0.25-1-0.375-0.25-0.813-0.125-1 0.25-0.25 0.375-0.125 0.813 0.25 1.063zM14.438 21.625c0.313 0.063 0.625-0.063 0.813-0.313 0.125-0.25 0.125-0.563 0-0.813zM21.75 27c-0.375-0.188-0.813-0.063-1.063 0.313-0.188 0.313-0.063 0.75 0.25 1 0.438-0.188 0.813-0.375 1.188-0.563 0-0.25-0.125-0.563-0.375-0.75zM27.813 12.5c0.313 0.188 0.688 0.125 0.938-0.125-0.125-0.438-0.25-0.875-0.438-1.25-0.313-0.063-0.625 0.063-0.813 0.375s-0.063 0.813 0.313 1zM18.75 3.438c0.313 0.188 0.75 0.125 0.938-0.188-0.438-0.125-0.875-0.188-1.313-0.313 0.063 0.25 0.188 0.438 0.375 0.5zM21 5.688c0.375 0.25 0.813 0.125 1.063-0.25 0.188-0.375 0.063-0.813-0.313-1-0.375-0.25-0.813-0.125-1 0.25-0.25 0.375-0.125 0.813 0.25 1zM27.5 20.5c-0.188 0.375-0.063 0.813 0.313 1 0.063 0.063 0.125 0.063 0.188 0.125 0.188-0.438 0.375-0.938 0.563-1.375 0 0 0 0 0 0-0.375-0.25-0.813-0.125-1.063 0.25zM26.25 22.5c-0.313-0.25-0.813-0.125-1 0.25s-0.063 0.813 0.25 1.063c0.375 0.188 0.875 0.063 1.063-0.313s0.063-0.813-0.313-1zM24.063 6.688c-0.375-0.188-0.875-0.063-1.063 0.25-0.188 0.375-0.063 0.813 0.313 1.063 0.313 0.188 0.813 0.063 1-0.313 0.188-0.313 0.063-0.813-0.25-1zM26.25 17.938c-0.313-0.188-0.813-0.063-1 0.313s-0.063 0.813 0.25 1c0.375 0.25 0.875 0.125 1.063-0.25s0.063-0.813-0.313-1.063zM28.563 15.688c-0.375-0.188-0.813-0.063-1.063 0.313-0.188 0.313-0.063 0.813 0.313 1 0.313 0.188 0.813 0.063 1-0.25 0.188-0.375 0.063-0.813-0.25-1.063zM24.063 11.188c-0.375-0.188-0.875-0.063-1.063 0.313-0.188 0.313-0.063 0.813 0.313 1 0.313 0.188 0.813 0.063 1-0.25 0.188-0.375 0.063-0.813-0.25-1.063zM26.313 13.438c-0.375-0.188-0.813-0.063-1.063 0.313-0.188 0.375-0.063 0.813 0.313 1 0.313 0.188 0.813 0.125 1-0.25s0.063-0.813-0.25-1.063zM21.75 22.5c-0.375-0.188-0.813-0.063-1.063 0.25-0.188 0.375-0.063 0.875 0.313 1.063s0.813 0.063 1-0.313c0.25-0.313 0.125-0.813-0.25-1zM26.313 8.938c-0.375-0.188-0.813-0.063-1.063 0.313-0.188 0.313-0.063 0.813 0.313 1 0.313 0.188 0.813 0.063 1-0.25 0.188-0.375 0.063-0.875-0.25-1.063zM24.063 15.75c-0.375-0.25-0.875-0.125-1.063 0.25s-0.063 0.813 0.313 1c0.313 0.25 0.813 0.125 1-0.25s0.063-0.813-0.25-1zM21.75 13.438c-0.313-0.188-0.813-0.063-1 0.313s-0.063 0.813 0.25 1c0.375 0.188 0.813 0.125 1.063-0.25 0.188-0.375 0.063-0.813-0.313-1.063zM21.75 18c-0.313-0.25-0.813-0.125-1 0.25s-0.063 0.813 0.25 1c0.375 0.25 0.813 0.125 1.063-0.25 0.188-0.375 0.063-0.813-0.313-1zM21.75 8.938c-0.313-0.188-0.813-0.063-1 0.313-0.188 0.313-0.063 0.813 0.25 1 0.375 0.188 0.813 0.063 1.063-0.25 0.188-0.375 0.063-0.875-0.313-1.063zM24 20.25c-0.313-0.25-0.813-0.125-1 0.25s-0.063 0.813 0.25 1c0.375 0.25 0.813 0.125 1.063-0.25 0.188-0.375 0.063-0.813-0.313-1zM24 24.75c-0.375-0.188-0.813-0.063-1 0.313-0.25 0.313-0.125 0.813 0.25 1s0.813 0.063 1-0.25c0.25-0.375 0.125-0.813-0.25-1.063zM32 16c0 8.813-7.188 16-16 16s-16-7.188-16-16c0-8.813 7.188-16 16-16s16 7.188 16 16zM7 27.375l7.75-10.875-13.063-3c-0.125 0.813-0.188 1.625-0.188 2.5 0 4 1.625 7.625 4.25 10.25 0.375 0.438 0.813 0.813 1.25 1.125zM30.5 16c0-4-1.625-7.625-4.25-10.25-2.438-2.438-5.813-4.063-9.5-4.25v14.5l-0.125 0.438-8.375 11.813c2.25 1.438 4.875 2.25 7.75 2.25 4 0 7.625-1.625 10.25-4.25s4.25-6.25 4.25-10.25z"></path>
</svg>
