<svg xmlns="http://www.w3.org/2000/svg" viewBox="0 0 39.63 37.56"><title>sunburst simplified</title><g id="Layer_2" data-name="Layer 2"><g id="Layer_1-2" data-name="Layer 1"><path fill='none' stroke='#000' stroke-miterlimit='10' d="M16.7,26.42,10.78,36.89A19.32,19.32,0,1,1,39.13,19.81H27.29"/><circle fill='none' stroke='#000' stroke-miterlimit='10' cx="20.12" cy="20.12" r="7.16"/><circle fill='none' stroke='#000' stroke-miterlimit='10' cx="20.12" cy="20.12" r="2.8"/><circle fill='none' stroke='#000' stroke-miterlimit='10' cx="19.81" cy="19.81" r="14.95"/><path fill='none' stroke='#000' stroke-miterlimit='10' d="M12.83,20.12H9.53A11.21,11.21,0,0,1,20.75,8.91v4"/><path fill='none' stroke='#000' stroke-miterlimit='10' d="M21.63,27.25,22.72,31a11.51,11.51,0,0,0,6.53-4.45l-3-2.35"/><path fill='none' stroke='#000' stroke-miterlimit='10' d="M22.69,30.75A10.66,10.66,0,0,1,15,29.48"/><path fill='none' stroke='#000' stroke-miterlimit='10' d="M31.14,20a11.08,11.08,0,0,1-2,6.39"/></g></g></svg>
