<?xml version="1.0" encoding="utf-8"?>
<!-- Generator: Adobe Illustrator 16.0.0, SVG Export Plug-In . SVG Version: 6.00 Build 0)  -->
<!DOCTYPE svg PUBLIC "-//W3C//DTD SVG 1.1//EN" "http://www.w3.org/Graphics/SVG/1.1/DTD/svg11.dtd">
<svg version="1.1" id="Layer_1" xmlns="http://www.w3.org/2000/svg" xmlns:xlink="http://www.w3.org/1999/xlink" x="0px" y="0px"
	 width="1360px" height="1360px" viewBox="0 0 1360 1360" enable-background="new 0 0 1360 1360" xml:space="preserve">
<path fill="#FFFFFF" d="M436.395,296.519c-0.035,0.024-132.838,63.18-168.071,176.888l113.017,77.533l0,0
	c27.173-50.264,66.14-95.117,116.285-129.927c3.922-2.722,7.916-5.272,11.899-7.825"/>
<path fill="#FFFFFF" d="M907.083,618.819C954.8,702.082,943.541,805.4,882.72,876.277l248.645,147.556
	c34.558-50.135,71.658-119.84,87.054-203.214c32.22-174.515-44.787-317.497-44.787-317.497l0.016-0.008"/>
<path fill="#FFFFFF" d="M833.271,726.291c0,67.024-54.335,121.356-121.359,121.356c-67.021,0-121.353-54.332-121.353-121.356
	c0-67.021,54.331-121.353,121.353-121.353C778.936,604.938,833.271,659.27,833.271,726.291z"/>
<path fill="#FFFFFF" d="M710.058,216.76c32.74,0,64.756,3.091,95.797,8.937l17.614-92.353
	c-122.54-22.829-251.963-8.079-369.683,47.472l36.725,85.027C557.105,234.382,631.52,216.76,710.058,216.76z"/>
<path fill="#FFFFFF" d="M195.443,731.377c0-40.25,4.629-79.417,13.37-117.007l-88.215-20.637
	c-33.906,147.212-12.908,306.442,68.628,444.549l77.852-44.906C221.586,916.629,195.443,827.063,195.443,731.377z"/>
<path fill="#FFFFFF" d="M775.236,514.777c46.584,13.589,89.045,42.3,119.402,84.678l0,0l125.302-85.87
	c-10.704-14.181-81.113-103.261-186.458-139.721"/>
<path fill="#FFFFFF" d="M751.772,509.24l28.458-149.199c-77.99-14.327-160.442-4.134-234.861,32.799l60.376,139.786
	C651.6,507.84,703.113,500.534,751.772,509.24z"/>
<path fill="#FFFFFF" d="M520.673,847.101c-31.415-51.376-39.778-111.009-27.389-166.175l0,0l-147.923-34.606
	c-20.933,91.694-7.544,190.861,43.773,276.665"/>
<path fill="#FFFFFF" d="M669.68,950.522c-46.869-9.056-90.873-32.971-124.379-70.373l0,0l-95.508,109.614
	c47.968,83.938,189.86,109.751,189.945,109.767L669.68,950.522z"/>
<path fill="#FFFFFF" d="M799.638,1236.97c86.811-12.874,206.11-90.075,259.565-127.28c0.373-0.339,1.169-1.073,2.691-2.531
	L859.103,899.941c-5.968,5.145-12.239,10.043-18.856,14.63c-34.726,24.105-73.889,37.037-113.209,39.593"/>
</svg>
