<svg id="Layer_1" xmlns="http://www.w3.org/2000/svg" viewBox="0 0 14.57 14.6"><title>Sunburst</title><circle cx="7.25" cy="7.19" r="1.22"/><path d="M10,13a2.85,2.85,0,1,1,2.85-2.85A2.85,2.85,0,0,1,10,13Zm0-4.86a2,2,0,1,0,2,2A2,2,0,0,0,10,8.18Z" transform="translate(-2.81 -2.97)"/><path d="M6.61,3.84a7.35,7.35,0,0,0-3,3.08c-.08.18-.18.37-.21.44l-.06.12,1.79.68c1,.37,1.8.67,1.81.66a1.61,1.61,0,0,0,.14-.24A3.77,3.77,0,0,1,8.3,7.32l.16-.1L7.67,5.46,6.87,3.7l-.08,0Z" transform="translate(-2.81 -2.97)"/><path d="M8.13,5.25,8.93,7l.24-.07a3.74,3.74,0,0,1,1.12-.12,3.54,3.54,0,0,1,2.5,1.29,2.43,2.43,0,0,1,.42.74,2.73,2.73,0,0,1,.28.78,3.61,3.61,0,0,1,0,1.43l0,.22,1.78.68c1,.37,1.79.66,1.81.65a7.57,7.57,0,0,0,.29-1.12A7.43,7.43,0,0,0,17,7.93a9.33,9.33,0,0,0-.78-1.62,7.37,7.37,0,0,0-3.54-2.87A7.25,7.25,0,0,0,10.35,3a7.44,7.44,0,0,0-2.83.44l-.18.07Z" transform="translate(-2.81 -2.97)"/><path d="M3.12,8.15A7.48,7.48,0,0,0,3,11.8a7.94,7.94,0,0,0,1.3,2.85,6.11,6.11,0,0,0,1.27,1.28s.54-.69,1.17-1.52L7.86,12.9l-.19-.19a2.89,2.89,0,0,1-.69-1,3.4,3.4,0,0,1-.26-2.15l0-.25L5,8.63,3.18,8Z" transform="translate(-2.81 -2.97)"/><path d="M7.11,14.72C6.41,15.63,6,16.25,6,16.27a5.52,5.52,0,0,0,.85.52,7.41,7.41,0,0,0,2.93.77,6.39,6.39,0,0,0,1.11,0s-.11-.86-.25-1.9l-.25-1.9H10a3.4,3.4,0,0,1-1.54-.42l-.19-.1Z" transform="translate(-2.81 -2.97)"/><path d="M13.07,12l-.07.21.08,0,1.81.7,1.73.66.08-.22.08-.21L15,12.45l-1.81-.68Z" transform="translate(-2.81 -2.97)"/></svg>
