<svg id="Layer_1" xmlns="http://www.w3.org/2000/svg" viewBox="0 0 20 20"><title>waterfall simplified</title><path d="M5.67,18H2.78V5H5.67Zm-2.51-.38H5.29V5.33H3.16Z"/><path d="M8.46,8.46H5.82V5H8.46ZM6.2,8.08H8.08V5.33H6.2Z"/><path d="M13.89,12.8H11.34V2h2.55Zm-2.17-.38h1.79v-10H11.72Z"/><path d="M11.14,12.8H8.55V8.08h2.59Zm-2.21-.38h1.83v-4H8.93Z"/><path d="M16.84,18H14.1V2h2.74Zm-2.36-.38h2V2.38h-2Z"/><rect x="13.69" y="2" width="0.62" height="0.38"/><rect x="10.95" y="12.39" width="0.59" height="0.38"/><rect x="5.48" y="4.95" width="0.52" height="0.38"/><rect x="8.28" y="8.11" width="0.46" height="0.38"/></svg>
