<?xml version="1.0" encoding="utf-8"?> <!-- Generator: IcoMoon.io --> <!DOCTYPE svg PUBLIC "-//W3C//DTD SVG 1.1//EN" "http://www.w3.org/Graphics/SVG/1.1/DTD/svg11.dtd"> <svg version="1.1" id="Layer_2" xmlns="http://www.w3.org/2000/svg" xmlns:xlink="http://www.w3.org/1999/xlink" x="0px" y="0px" width="24" height="16" viewBox="0 0 24 16" enable-background="new 0 0.028 24 16" xml:space="preserve" fill="#666666"> <g><path d="M0,0l 4,0 l0,4 L0,4 L0,0 z M 4,12l0-4 L0,8 l0,4 l0,4 l 4,0 l 4,0 l0-4 L 4,12 z M 8,0l 4,0 l0,4 L 8,4 L 8,0 z M 4,4l 4,0 l0,4 L 4,8 L 4,4 z M 12,4l 4,0 l0,4 l-4,0 L 12,4 z M 8,8l 4,0 l0,4 L 8,12 L 8,8 z M 20,0l-4,0 l0,4 l 4,0 l0,4 l 4,0 l0-4 l0-4 L 20,0 z M 16,8l 4,0 l0,4 l-4,0 L 16,8 z M 12,12l 4,0 l0,4 l-4,0 L 12,12 z M 20,12l 4,0 l0,4 l-4,0 L 20,12 z"></path></g></svg>