<!-- Generated by IcoMoon.io -->
<svg version="1.1" xmlns="http://www.w3.org/2000/svg" width="32" height="32" viewBox="0 0 32 32">
<title>pie-chart</title>
<path d="M13.688 15.875l9.75 9.75c-1.25 1.313-2.688 2.313-4.375 3-1.688 0.75-3.5 1.063-5.375 1.063-2.438 0-4.75-0.563-6.875-1.813-2.063-1.25-3.75-2.875-5-5-1.188-2.063-1.813-4.375-1.813-6.875s0.625-4.813 1.813-6.875c1.25-2.125 2.938-3.75 5-5 2.125-1.25 4.438-1.813 6.875-1.813zM17.063 16h13.813c0 1.875-0.375 3.625-1.063 5.313-0.75 1.688-1.75 3.188-3 4.438zM29.688 13.688h-13.688v-13.688c2.5 0 4.813 0.625 6.875 1.813 2.125 1.25 3.75 2.938 5 5 1.25 2.125 1.813 4.438 1.813 6.875z"></path>
</svg>
