<?xml version="1.0" encoding="utf-8"?> <!-- Generator: IcoMoon.io --> <!DOCTYPE svg PUBLIC "-//W3C//DTD SVG 1.1//EN" "http://www.w3.org/Graphics/SVG/1.1/DTD/svg11.dtd"> <svg version="1.1" xmlns="http://www.w3.org/2000/svg" xmlns:xlink="http://www.w3.org/1999/xlink" x="0px" y="0px" width="24" height="16" viewBox="0 0 24 16" enable-background="new 0 0.028 24 16" xml:space="preserve" fill="#666666"> <g><path d="M0,2A2,2 0 1 0 4,2A2,2 0 1 0 0,2zM 8,8A2,2 0 1 0 12,8A2,2 0 1 0 8,8zM 12,3.005A2,2.005 0 1 0 16,3.005A2,2.005 0 1 0 12,3.005zM 4,14A2,2 0 1 0 8,14A2,2 0 1 0 4,14zM 16,11A2,2 0 1 0 20,11A2,2 0 1 0 16,11zM 20,5A2,2 0 1 0 24,5A2,2 0 1 0 20,5z"></path></g></svg>