<?xml version="1.0" encoding="utf-8"?> <!-- Generator: IcoMoon.io --> <!DOCTYPE svg PUBLIC "-//W3C//DTD SVG 1.1//EN" "http://www.w3.org/Graphics/SVG/1.1/DTD/svg11.dtd"> <svg version="1.1" xmlns="http://www.w3.org/2000/svg" xmlns:xlink="http://www.w3.org/1999/xlink" x="0px" y="0px" width="24" height="16" viewBox="0 0 24 16" enable-background="new 0 0.028 24 16" xml:space="preserve" fill="#666666"> <g><path d="M 1,10.5A2,2 0 1 0 5,10.5A2,2 0 1 0 1,10.5zM 7,2A2,2 0 1 0 11,2A2,2 0 1 0 7,2zM 19,5.5A2,2 0 1 0 23,5.5A2,2 0 1 0 19,5.5zM 13,14A2,2 0 1 0 17,14A2,2 0 1 0 13,14zM 24,13.006L0,6.006L0,3L 24,10 z"></path></g></svg>