<svg id="Layer_1" xmlns="http://www.w3.org/2000/svg" viewBox="0 0 20 20"><title>sunburst simplified</title><path d="M6.45,18.18l-.19-.11A8,8,0,1,1,18,11v.23H13v-.46h4.53A7.54,7.54,0,1,0,6.28,17.56l2.27-4,.4.22Z"/><path d="M10.13,14.24a3.12,3.12,0,1,1,3.11-3.11A3.12,3.12,0,0,1,10.13,14.24Zm0-5.77a2.66,2.66,0,1,0,2.65,2.66A2.66,2.66,0,0,0,10.13,8.47Z"/><path d="M10.13,12.48a1.36,1.36,0,1,1,1.35-1.35A1.36,1.36,0,0,1,10.13,12.48Zm0-2.25a.9.9,0,1,0,0,1.8.9.9,0,1,0,0-1.8Z"/><path d="M10,17.24A6.24,6.24,0,1,1,16.24,11,6.25,6.25,0,0,1,10,17.24Zm0-12A5.79,5.79,0,1,0,15.79,11,5.8,5.8,0,0,0,10,5.21Z"/><path d="M7.19,11.35H5.64v-.22a4.75,4.75,0,0,1,4.74-4.75h.23V8.21h-.46V6.85A4.28,4.28,0,0,0,6.1,10.9H7.19Z"/><path d="M11.05,16l-.54-1.84L11,14l.4,1.38a4.75,4.75,0,0,0,2.33-1.59L12.6,13l.3-.39,1.5,1.17-.14.19a5.22,5.22,0,0,1-3,2Z"/><path d="M10.24,15.73a4.49,4.49,0,0,1-2.31-.64l.24-.4a4.09,4.09,0,0,0,2.94.49l.1.44A4.51,4.51,0,0,1,10.24,15.73Z"/><path d="M13.93,13.76l-.37-.26a4.26,4.26,0,0,0,.77-2.44h.46A4.66,4.66,0,0,1,13.93,13.76Z"/></svg>
