<!-- Generated by IcoMoon.io -->
<svg version="1.1" xmlns="http://www.w3.org/2000/svg" width="32" height="32" viewBox="0 0 32 32">
<title>plot-scatter</title>
<path d="M0 8c0 1.5 1.188 2.688 2.688 2.688 1.438 0 2.625-1.188 2.625-2.688s-1.188-2.688-2.625-2.688c-1.5 0-2.688 1.188-2.688 2.688zM10.688 16c0 1.5 1.188 2.688 2.625 2.688 1.5 0 2.688-1.188 2.688-2.688s-1.188-2.688-2.688-2.688c-1.438 0-2.625 1.188-2.625 2.688zM16 9.313c0 1.5 1.188 2.688 2.688 2.688 1.438 0 2.625-1.188 2.625-2.688 0-1.438-1.188-2.625-2.625-2.625-1.5 0-2.688 1.188-2.688 2.625zM5.313 24c0 1.5 1.188 2.688 2.688 2.688s2.688-1.188 2.688-2.688c0-1.5-1.188-2.688-2.688-2.688s-2.688 1.188-2.688 2.688zM21.313 20c0 1.5 1.188 2.688 2.688 2.688s2.688-1.188 2.688-2.688c0-1.5-1.188-2.688-2.688-2.688s-2.688 1.188-2.688 2.688zM26.688 12c0 1.5 1.188 2.688 2.625 2.688 1.5 0 2.688-1.188 2.688-2.688s-1.188-2.688-2.688-2.688c-1.438 0-2.625 1.188-2.625 2.688z"></path>
</svg>
