<?xml version="1.0" encoding="utf-8"?>
<!-- Generator: Adobe Illustrator 16.0.0, SVG Export Plug-In . SVG Version: 6.00 Build 0)  -->
<!DOCTYPE svg PUBLIC "-//W3C//DTD SVG 1.1//EN" "http://www.w3.org/Graphics/SVG/1.1/DTD/svg11.dtd">
<svg version="1.1" id="Layer_1" xmlns="http://www.w3.org/2000/svg" xmlns:xlink="http://www.w3.org/1999/xlink" x="0px" y="0px"
	 width="1360px" height="1360px" viewBox="0 0 1360 1360" enable-background="new 0 0 1360 1360" xml:space="preserve">
<path fill="#FFFFFF" d="M1174.5,162.716H186.081c-12.743,0-23.074,10.331-23.074,23.074v321.832
	c-0.37,1.639-0.581,3.338-0.581,5.088c0,1.749,0.211,3.449,0.581,5.088V843.85c-0.37,1.639-0.581,3.338-0.581,5.088
	s0.211,3.449,0.581,5.088v320.184c0,12.744,10.331,23.074,23.074,23.074H1174.5c12.744,0,23.074-10.33,23.074-23.074V185.79
	C1197.574,173.047,1187.244,162.716,1174.5,162.716z M532.198,825.863V535.784h290.078v290.079H532.198z M822.276,872.012v279.123
	H532.198V872.012H822.276z M209.156,535.784h276.893v290.079H209.156V535.784z M532.198,489.636V208.865h290.078v280.771H532.198z
	 M868.426,535.784h283v290.079h-283V535.784z M1151.426,489.636h-283V208.865h283V489.636z M486.049,208.865v280.771H209.156
	V208.865H486.049z M209.156,872.012h276.893v279.123H209.156V872.012z M868.426,1151.135V872.012h283v279.123H868.426z"/>
<circle fill="#FFFFFF" cx="267.502" cy="1098.284" r="30.664"/>
<path fill="#FFFFFF" d="M352.718,919.58c25.607-25.614,67.135-25.614,92.748,0c25.607,25.606,25.607,67.135,0,92.742
	c-25.613,25.614-67.141,25.614-92.748,0C327.106,986.715,327.106,945.187,352.718,919.58z"/>
<circle fill="#FFFFFF" cx="430.5" cy="1098.284" r="30.664"/>
<circle fill="#FFFFFF" cx="267.502" cy="935.286" r="30.665"/>
<circle fill="#FFFFFF" cx="598.792" cy="935.287" r="30.664"/>
<circle fill="#FFFFFF" cx="598.792" cy="1098.284" r="30.664"/>
<path fill="#FFFFFF" d="M783.476,1048.879c19.627,19.628,19.627,51.458,0,71.088c-19.632,19.631-51.461,19.631-71.092,0
	c-19.627-19.63-19.627-51.46,0-71.088C732.015,1029.252,763.844,1029.252,783.476,1048.879z"/>
<circle fill="#FFFFFF" cx="266.756" cy="601.798" r="30.664"/>
<path fill="#FFFFFF" d="M387.803,645.243c21.43,21.426,21.43,56.173,0,77.605c-21.426,21.427-56.176,21.427-77.602,0
	c-21.43-21.433-21.43-56.18,0-77.605C331.627,623.813,366.377,623.813,387.803,645.243z"/>
<circle fill="#FFFFFF" cx="266.755" cy="764.796" r="30.664"/>
<circle fill="#FFFFFF" cx="429.754" cy="764.796" r="30.665"/>
<circle fill="#FFFFFF" cx="1091.224" cy="271.618" r="30.664"/>
<circle fill="#FFFFFF" cx="928.226" cy="271.618" r="30.665"/>
<circle fill="#FFFFFF" cx="928.226" cy="434.615" r="30.665"/>
<path fill="#FFFFFF" d="M1036.258,378.904c-14.652,14.652-38.414,14.652-53.07,0c-14.653-14.655-14.653-38.417,0-53.072
	c14.656-14.652,38.418-14.652,53.07,0C1050.911,340.487,1050.911,364.25,1036.258,378.904z"/>
<circle fill="#FFFFFF" cx="759.933" cy="434.616" r="30.664"/>
<path fill="#FFFFFF" d="M681.069,348.629c-25.599-25.593-25.599-67.099,0-92.697c25.596-25.593,67.103-25.593,92.695,0
	c25.601,25.598,25.601,67.104,0,92.697C748.172,374.223,706.665,374.223,681.069,348.629z"/>
<circle fill="#FFFFFF" cx="596.936" cy="271.618" r="30.665"/>
<path fill="#FFFFFF" d="M1070.287,789.785c-11.976-11.975-11.976-31.39,0-43.364c11.975-11.976,31.393-11.976,43.365,0
	c11.976,11.975,11.976,31.39,0,43.364C1101.68,801.764,1082.262,801.764,1070.287,789.785z"/>
<path fill="#FFFFFF" d="M994.818,700.765c-8.232-8.234-8.232-21.581,0-29.815c8.231-8.231,21.579-8.231,29.812,0
	c8.231,8.234,8.231,21.581,0,29.815C1016.397,708.995,1003.05,708.995,994.818,700.765z"/>
<path fill="#FFFFFF" d="M1042.042,655.035c-19.777-19.774-19.777-51.838,0-71.613c19.772-19.77,51.837-19.77,71.609,0
	c19.777,19.775,19.777,51.839,0,71.613C1093.879,674.806,1061.814,674.806,1042.042,655.035z"/>
<path fill="#FFFFFF" d="M907.288,626.789c-11.972-11.975-11.972-31.393,0-43.367c11.977-11.975,31.393-11.975,43.367,0
	c11.974,11.975,11.974,31.393,0,43.367C938.681,638.762,919.265,638.762,907.288,626.789z"/>
<circle fill="#FFFFFF" cx="596.935" cy="352.369" r="14.516"/>
<circle fill="#FFFFFF" cx="928.973" cy="352.369" r="18.266"/>
<circle fill="#FFFFFF" cx="1091.969" cy="434.615" r="18.266"/>
<circle fill="#FFFFFF" cx="1009.724" cy="271.617" r="18.509"/>
<circle fill="#FFFFFF" cx="349.002" cy="1098.283" r="19.813"/>
<circle fill="#FFFFFF" cx="681.039" cy="1016.035" r="19.376"/>
<circle fill="#FFFFFF" cx="598.792" cy="1016.036" r="14.516"/>
</svg>
