<svg xmlns="http://www.w3.org/2000/svg" viewBox="0 0 23.91 19.74"><defs></defs><title>Asset 8_1</title><g id="Layer_2" ><g id="Layer_1-2" ><path class="cls-1" d="M22,0H1.87A1.73,1.73,0,0,0,0,1.54V18.19a1.75,1.75,0,0,0,1.87,1.55H22a1.75,1.75,0,0,0,1.87-1.55V1.54A1.73,1.73,0,0,0,22,0Zm1.12,18.19a1,1,0,0,1-1.12.93H1.87a1,1,0,0,1-1.12-.93V1.54A1,1,0,0,1,1.87.62H22a1,1,0,0,1,1.12.92Z"/><path class="cls-1" d="M2.62,1.87h0a.73.73,0,0,0-.71.75V4.11h.75V2.62H4.48V1.87Z"/><path class="cls-1" d="M19.8,3.74H4.11a.36.36,0,0,0-.37.37V8.59A.37.37,0,0,0,4.11,9H19.8a.37.37,0,0,0,.37-.38V4.11A.36.36,0,0,0,19.8,3.74Zm-.37,4.48H4.48V4.48h15Z"/><path class="cls-1" d="M9.76,10.09H4.09a.35.35,0,0,0-.35.35v5.67a.35.35,0,0,0,.35.36H9.76a.35.35,0,0,0,.35-.36V10.44A.35.35,0,0,0,9.76,10.09ZM4.44,15.76V11.3l4.47,4.46Zm5-.5L5,10.8H9.41Z"/><rect class="cls-1" x="11.21" y="10.77" width="8.97" height="0.75"/><rect class="cls-1" x="12.7" y="12.51" width="7.56" height="0.9"/><rect class="cls-1" x="11.64" y="14.96" width="1.02" height="1.02"/><rect class="cls-1" x="13.68" y="14.96" width="1.02" height="1.02"/></g></g></svg>
