<svg xmlns="http://www.w3.org/2000/svg" viewBox="0 0 18.2 13"><defs></defs><title>Asset 12</title><g id="Layer_2" data-name="Layer 2"><g id="Layer_1-2" data-name="Layer 1"><path class="cls-1" d="M5.61,13H2.12A2.12,2.12,0,0,1,0,10.88V3H5.61Z"/><path class="cls-1" d="M18.2,2.12A2.18,2.18,0,0,0,16,0H2.23A2.18,2.18,0,0,0,0,2.12Z"/><path class="cls-1" d="M6.47,3V13h9.61a2.12,2.12,0,0,0,2.12-2.12V3ZM7.8,5.65a.45.45,0,0,1,.45-.45h5.34a.45.45,0,0,1,.45.45v.14a.45.45,0,0,1-.45.45H8.25a.45.45,0,0,1-.45-.45ZM14,10a.45.45,0,0,1-.45.45H8.25A.45.45,0,0,1,7.8,10V9.81a.45.45,0,0,1,.45-.45h5.34a.45.45,0,0,1,.45.45ZM15.6,8.32H8.32a.52.52,0,0,1,0-1H15.6a.52.52,0,0,1,0,1Z"/></g></g></svg>
