<?xml version="1.0" encoding="utf-8"?>
<!-- Generator: Adobe Illustrator 23.0.1, SVG Export Plug-In . SVG Version: 6.00 Build 0)  -->
<svg version="1.1" id="Layer_1" xmlns="http://www.w3.org/2000/svg" xmlns:xlink="http://www.w3.org/1999/xlink" x="0px" y="0px"
	 viewBox="0 0 26.3 21.6" style="enable-background:new 0 0 26.3 21.6;" xml:space="preserve">
<title>Asset 9_1</title>
<g>
	<g id="Layer_1-2">
		<path class="st0" d="M21.8,2.1H1.8C0.9,2.1,0.1,2.7,0,3.7v16.4c0.1,0.9,0.9,1.6,1.8,1.5h19.9c0.9,0.1,1.7-0.6,1.8-1.5V3.7
			C23.5,2.7,22.7,2,21.8,2.1z M22.9,20.1c0,0.6-0.5,1-1.1,0.9c0,0,0,0,0,0H1.8c-0.5,0.1-1-0.3-1.1-0.9c0,0,0,0,0,0V3.7
			c0-0.6,0.5-1,1.1-0.9c0,0,0,0,0,0h19.9c0.5-0.1,1,0.3,1.1,0.9c0,0,0,0,0,0V20.1z"/>
		<path class="st0" d="M2.6,4L2.6,4C2.2,4,1.9,4.3,1.9,4.7v1.5h0.7V4.7h1.8V4H2.6z"/>
		<path class="st0" d="M19.5,5.8H4.1C3.9,5.8,3.7,6,3.7,6.2c0,0,0,0,0,0v4.4C3.7,10.8,3.8,11,4,11c0,0,0,0,0,0h15.5
			c0.2,0,0.4-0.2,0.4-0.3c0,0,0,0,0,0V6.2C19.9,6,19.8,5.8,19.5,5.8C19.6,5.8,19.5,5.8,19.5,5.8z M19.2,10.2H4.4V6.6h14.8V10.2z"/>
		<path class="st0" d="M9.6,12.1H4c-0.2,0-0.3,0.1-0.3,0.3c0,0,0,0,0,0V18c0,0.2,0.1,0.3,0.3,0.4c0,0,0,0,0,0h5.6
			c0.2,0,0.4-0.1,0.4-0.3c0,0,0,0,0,0v-5.6C10,12.3,9.9,12.1,9.6,12.1C9.7,12.1,9.6,12.1,9.6,12.1z M4.4,17.7v-4.4l4.4,4.4H4.4z
			 M9.3,17.2l-4.4-4.4h4.4V17.2z"/>
		<rect x="11.1" y="12.8" class="st0" width="8.8" height="0.7"/>
		<rect x="12.5" y="14.5" class="st0" width="7.5" height="0.9"/>
		<rect x="11.5" y="16.9" class="st0" width="1" height="1"/>
		<rect x="13.5" y="16.9" class="st0" width="1" height="1"/>
		<path class="st0" d="M5.5,0.8L5.2,0.5c0.1-0.1,0.3-0.2,0.5-0.3l0.2,0.5C5.7,0.7,5.6,0.7,5.5,0.8z"/>
		<path class="st0" d="M25.8,17.9l-0.4-0.4c0.2-0.2,0.3-0.4,0.3-0.7l0.5,0C26.2,17.3,26,17.6,25.8,17.9z M26.2,15.9h-0.5v-1h0.5
			V15.9z M26.2,13.9h-0.5v-1h0.5V13.9z M26.2,11.9h-0.5v-1h0.5V11.9z M26.2,10h-0.5V9h0.5V10z M26.2,8h-0.5V7h0.5V8z M26.2,6.1h-0.5
			v-1h0.5V6.1z M26.2,4.1h-0.5v-1h0.5V4.1z M26.2,2.1h-0.5V1.7c0-0.1,0-0.3-0.1-0.4l0.5-0.2c0.1,0.2,0.1,0.4,0.1,0.6V2.1z M25.2,0.7
			c-0.2-0.1-0.4-0.2-0.6-0.2h-0.3V0h0.3c0.3,0,0.6,0.1,0.8,0.2L25.2,0.7z M23.4,0.5h-1V0h1V0.5z M21.4,0.5h-1V0h1V0.5z M19.5,0.5h-1
			V0h1V0.5z M17.5,0.5h-1V0h1V0.5z M15.5,0.5h-1V0h1V0.5z M13.6,0.5h-1V0h1V0.5z M11.6,0.5h-1V0h1V0.5z M9.6,0.5h-1V0h1V0.5z
			 M7.7,0.5h-1V0h1V0.5z"/>
		<rect x="24.2" y="17.8" class="st0" width="0.5" height="0.5"/>
	</g>
</g>
</svg>
