<svg xmlns="http://www.w3.org/2000/svg" viewBox="0 0 10.78 10.78"><defs></defs><title>Asset 7</title><g id="Layer_2" ><g id="Layer_1-2" ><g id="palette"><path class="cls-1" d="M5.39,0a5.39,5.39,0,0,0,0,10.78.92.92,0,0,0,.9-.9.77.77,0,0,0-.24-.6,1.07,1.07,0,0,1-.24-.6.92.92,0,0,1,.9-.9H7.78a3,3,0,0,0,3-3C10.78,2.16,8.38,0,5.39,0ZM2.1,5.39a.92.92,0,0,1-.9-.9.92.92,0,0,1,.9-.9.9.9,0,0,1,0,1.8ZM3.89,3A.92.92,0,0,1,3,2.1a.92.92,0,0,1,.9-.9.92.92,0,0,1,.9.9A.92.92,0,0,1,3.89,3Zm3,0A.92.92,0,0,1,6,2.1a.9.9,0,1,1,1.79,0A.92.92,0,0,1,6.89,3Zm1.79,2.4a.92.92,0,0,1-.9-.9.9.9,0,1,1,1.8,0A.92.92,0,0,1,8.68,5.39Z"/></g></g></g></svg>
