<svg xmlns="http://www.w3.org/2000/svg" viewBox="0 0 17 13.79"><defs></defs><title>Asset 1</title><g id="Layer_2" data-name="Layer 2"><g id="Layer_1-2" data-name="Layer 1"><path class="cls-1" d="M16.66.44a.26.26,0,0,0-.19-.15.25.25,0,0,0-.23.1,2.1,2.1,0,0,1-1.14.72A4.42,4.42,0,0,0,14,1.66a1.47,1.47,0,0,0-.71,1.52l0,0a6.8,6.8,0,0,0-.78-1A7.29,7.29,0,0,0,7.47,0H7.22A7.29,7.29,0,0,0,.08,8.31c0,.17.06.34.1.51a6.42,6.42,0,0,0,3.58,4.7,3.45,3.45,0,0,0,1.31.27,2.89,2.89,0,0,0,2.56-1.57A3.43,3.43,0,0,0,8,11.06a3.17,3.17,0,0,0,0-.69,2.22,2.22,0,0,1,0-.68A.89.89,0,0,1,9,8.89,1.41,1.41,0,0,1,9.41,9c-.18.32-.34.62-.47.9a8.16,8.16,0,0,0-.6,1.48c-.07.23-.24.85.18,1.14a.61.61,0,0,0,.48.1c.16,0,.64-.12,2-1.69.37-.42.77-.91,1.19-1.45a3.21,3.21,0,0,0,2.12-2.28,3.68,3.68,0,0,0,.07-.82c.4-.62.75-1.2,1.1-1.82l0,0a1.92,1.92,0,0,0,1.21-1.1A3.72,3.72,0,0,0,16.66.44ZM10.88,4.29a1,1,0,0,1-.86.47,1,1,0,0,1-.53-.15A1,1,0,0,1,9,4a1,1,0,0,1,.13-.76A1,1,0,0,1,10,2.75a.92.92,0,0,1,.53.16,1,1,0,0,1,.45.62A1,1,0,0,1,10.88,4.29Zm1.3,1.83c.51-.75,1.05-1.5,1.56-2.16l.28.22a2.11,2.11,0,0,0,.52.26c-.44.74-.9,1.47-1.46,2.3a39.84,39.84,0,0,1-2.71,3.56,9.82,9.82,0,0,1-1.16,1.17A10.24,10.24,0,0,1,9.87,10,39,39,0,0,1,12.18,6.12Zm-8.93,0A1,1,0,0,1,2.71,6a1,1,0,0,1-.44-.63,1,1,0,0,1,1-1.23,1,1,0,0,1,.53.15A1,1,0,0,1,4.1,5.64,1,1,0,0,1,3.25,6.11ZM2.19,8.33A1,1,0,0,1,3,7.86a1,1,0,0,1,1,.78,1.07,1.07,0,0,1-.13.76A1,1,0,0,1,3,9.87a1,1,0,0,1-.53-.15,1,1,0,0,1-.32-1.39Zm3.23-6a1,1,0,0,1,.85-.47A1,1,0,0,1,6.8,2a1,1,0,0,1,.32,1.39,1,1,0,0,1-.85.47,1,1,0,0,1-.54-.15,1,1,0,0,1-.44-.63A1,1,0,0,1,5.42,2.35Z"/></g></g></svg>
