<?xml version="1.0" encoding="utf-8"?>
<!-- Generator: Adobe Illustrator 16.0.0, SVG Export Plug-In . SVG Version: 6.00 Build 0)  -->
<!DOCTYPE svg PUBLIC "-//W3C//DTD SVG 1.1//EN" "http://www.w3.org/Graphics/SVG/1.1/DTD/svg11.dtd">
<svg version="1.1" id="Layer_1" xmlns="http://www.w3.org/2000/svg" xmlns:xlink="http://www.w3.org/1999/xlink" x="0px" y="0px"
	 width="1360px" height="1360px" viewBox="0 0 1360 1360" enable-background="new 0 0 1360 1360" xml:space="preserve">
<g>
	<path fill="#119DFF" d="M1080.177,1084.467c0.354-0.322,1.108-1.021,2.555-2.404L813.893,807.359
		c-1.172,0.887-2.273,1.848-3.495,2.695c-22.345,15.512-48.603,20.99-73.59,17.6l96.948,377.646
		C916.169,1193.08,1029.429,1119.787,1080.177,1084.467z"/>
	<path fill="#119DFF" d="M693.09,637.132c22.891-15.186,49.64-20.216,74.876-16.01l88.415-463.555
		c-116.336-21.674-239.205-7.669-350.961,45.067L693.09,637.132z"/>
	<path fill="#119DFF" d="M1231.328,810.035c30.589-165.676-42.52-301.417-42.52-301.417l0.015-0.008l-353.95,153.634
		c0.577,0.793,1.229,1.516,1.791,2.326c31.529,45.414,21.991,106.994-20.521,141.049l332.54,197.34
		C1181.488,955.361,1216.713,889.186,1231.328,810.035z"/>
	<path fill="#119DFF" d="M834.302,661.506l208.602-142.957c-10.164-13.462-77.007-98.029-177.018-132.644l-97.269,235.302
		C794.03,625.61,817.741,639.421,834.302,661.506z"/>
	<path fill="#119DFF" d="M648.714,702.166l-459.61-107.527c-32.188,139.755-12.253,290.923,65.154,422.035l408.846-235.822
		C647.476,756.703,643.056,728.416,648.714,702.166z"/>
	<path fill="#119DFF" d="M329.351,480.408l319.894,219.463c5.76-24.115,19.966-46.309,41.941-61.558
		c0.467-0.321,0.957-0.57,1.424-0.884l-203.702-324.95C488.876,312.5,369.895,400.59,329.351,480.408z"/>
	<path fill="#119DFF" d="M664.928,783.789c-0.08-0.113-0.137-0.23-0.217-0.342L501.627,970.611
		c45.541,79.689,180.246,104.195,180.326,104.211l49.816-247.875C705.615,822.107,681.287,807.365,664.928,783.789z"/>
	<g>
		<path fill="#09FFFF" d="M834.302,661.506l208.602-142.957c-10.164-13.462-77.007-98.029-177.018-132.644l-97.269,235.302
			C794.03,625.61,817.741,639.421,834.302,661.506z"/>
		<path fill="#09FFFF" d="M648.714,702.166L275.1,614.759c-27.23,118.514-10.205,246.698,55.633,357.805l332.37-191.713
			C647.476,756.703,643.056,728.416,648.714,702.166z"/>
		<path fill="#09FFFF" d="M1203.143,540.826c-0.667-1.643-1.286-3.302-1.977-4.941c-0.635-1.563-1.261-3.09-1.864-4.524
			c-3.287-7.637-6.806-15.214-10.519-22.734l-353.91,153.618c0.577,0.793,1.229,1.516,1.791,2.326
			c31.529,45.414,21.991,106.994-20.521,141.049l332.54,197.34c30.612-44.416,63.313-105.016,79.433-177.232
			c0.979-4.604,1.991-9.209,2.844-13.844c0.063-0.355,0.145-0.695,0.208-1.049c3.922-21.762,6.308-43.795,7.265-65.922
			c0.112-3.041,0.232-6.084,0.29-9.088c0.015-0.855,0.007-1.715,0.031-2.576C1239.806,649.236,1218.28,579.337,1203.143,540.826z"/>
		<path fill="#09FFFF" d="M693.09,637.132c22.891-15.186,49.64-20.216,74.876-16.01L839.838,244.3
			c-99.287-18.42-204.188-6.179-299.394,39.427L693.09,637.132z"/>
		<path fill="#09FFFF" d="M813.893,807.359c-1.172,0.887-2.273,1.848-3.495,2.695c-22.345,15.512-48.603,20.99-73.59,17.6
			l96.932,377.559c68.136-11.697,134.865-38.029,195.407-80.053c19.131-13.281,36.938-27.752,53.553-43.129L813.893,807.359z"/>
		<path fill="#09FFFF" d="M329.351,480.408l319.894,219.463c5.76-24.115,19.966-46.309,41.941-61.558
			c0.467-0.321,0.957-0.57,1.424-0.884l-203.702-324.95C488.876,312.5,369.895,400.59,329.351,480.408z"/>
		<path fill="#09FFFF" d="M664.928,783.789c-0.08-0.113-0.137-0.23-0.217-0.342L501.627,970.611
			c45.541,79.689,180.246,104.195,180.326,104.211l49.816-247.875C705.615,822.107,681.287,807.365,664.928,783.789z"/>
	</g>
	<g>
		<path fill="#119DFF" d="M693.09,637.132c22.891-15.186,49.64-20.216,74.876-16.01l47.365-248.342
			c-74.041-13.599-152.315-3.921-222.966,31.139L693.09,637.132z"/>
		<path fill="#119DFF" d="M834.302,661.506l208.602-142.957c-10.107-13.39-76.34-97.101-175.474-132.053
			c-0.523-0.177-1.036-0.382-1.559-0.559l-97.254,235.27C794.03,625.61,817.741,639.421,834.302,661.506z"/>
		<path fill="#119DFF" d="M648.714,702.166l-246.229-57.605c-19.871,87.053-7.16,181.197,41.556,262.656l219.063-126.365
			C647.476,756.703,643.056,728.416,648.714,702.166z"/>
		<path fill="#119DFF" d="M1068.493,560.841l-233.62,101.403c0.577,0.793,1.229,1.516,1.791,2.326
			c31.529,45.414,21.991,106.994-20.521,141.049l221.569,131.486C1117.57,829.52,1131.601,683.221,1068.493,560.841z"/>
		<path fill="#119DFF" d="M436.642,554.016l212.603,145.855c5.76-24.115,19.966-46.309,41.941-61.558
			c0.467-0.321,0.957-0.57,1.424-0.884L558.337,423.24c-3.784,2.422-7.576,4.841-11.298,7.429
			C499.434,463.715,462.441,506.296,436.642,554.016z"/>
		<path fill="#119DFF" d="M813.893,807.359c-1.172,0.887-2.273,1.848-3.495,2.695c-22.345,15.512-48.603,20.99-73.59,17.6
			l64.246,250.262c53.496-7.561,106.092-27.311,153.497-60.221c13.017-9.039,25.158-18.85,36.591-29.223L813.893,807.359z"/>
		<path fill="#119DFF" d="M664.928,783.789c-0.08-0.113-0.137-0.23-0.217-0.342L501.627,970.611
			c7.223,12.639,16.704,23.879,27.519,33.867c32.727,25.904,69.334,45.525,107.989,58.461c0.619,0.201,1.205,0.377,1.816,0.578
			c3.624,1.189,7.271,2.283,10.928,3.352c2.859,0.836,5.551,1.59,8.114,2.281c4.002,1.078,7.995,2.139,12.021,3.078
			c0.306,0.063,0.58,0.129,0.868,0.199c3.68,0.846,7.392,1.551,11.097,2.275l49.791-247.756
			C705.615,822.107,681.287,807.365,664.928,783.789z"/>
	</g>
	<g>
		<path fill="#09FFFF" d="M664.928,783.789c-0.08-0.113-0.137-0.23-0.217-0.342l-72.41,83.104
			c31.81,35.506,73.583,58.213,118.081,66.811l21.389-106.414C705.615,822.107,681.287,807.365,664.928,783.789z"/>
		<path fill="#09FFFF" d="M629.277,549.13c-32.862,22.815-57.297,53.224-72.634,87.215l92.602,63.526
			c5.76-24.115,19.966-46.309,41.941-61.558c0.467-0.321,0.957-0.57,1.424-0.884l-57.676-92.016
			C633.038,546.639,631.142,547.836,629.277,549.13z"/>
		<path fill="#09FFFF" d="M813.893,807.359c-1.172,0.887-2.273,1.848-3.495,2.695c-22.345,15.512-48.603,20.99-73.59,17.6
			l28.024,109.162c37.33-2.428,74.508-14.703,107.475-37.588c6.284-4.354,12.237-9.006,17.902-13.891L813.893,807.359z"/>
		<path fill="#09FFFF" d="M648.714,702.166l-105.796-24.75c-11.763,52.371-3.824,108.988,26.001,157.76l94.185-54.324
			C647.476,756.703,643.056,728.416,648.714,702.166z"/>
		<path fill="#09FFFF" d="M693.09,637.132c22.891-15.186,49.64-20.216,74.876-16.01l20.353-106.699
			c-46.2-8.264-95.107-1.326-138.641,22.208L693.09,637.132z"/>
		<path fill="#09FFFF" d="M834.302,661.506l89.645-61.435c-28.821-40.231-69.132-67.489-113.355-80.389l-41.974,101.525
			C794.03,625.61,817.741,639.421,834.302,661.506z"/>
		<path fill="#09FFFF" d="M935.759,618.455l-100.886,43.79c0.577,0.793,1.229,1.516,1.791,2.326
			c31.529,45.414,21.991,106.994-20.521,141.049l96.483,57.26C970.372,795.592,981.059,697.502,935.759,618.455z"/>
	</g>
</g>
</svg>
