<svg id="Layer_1" data-name="Layer 1" xmlns="http://www.w3.org/2000/svg" viewBox="0 0 46 46"><title>scattermapbox</title><rect x="5.5" y="6" width="35.5" height="35.5" style="fill:none;stroke:#dfe8f3;stroke-miterlimit:10;stroke-width:0.25px"/><line x1="5.5" y1="11.2" x2="41" y2="11.2" style="fill:none;stroke:#dfe8f3;stroke-miterlimit:10;stroke-width:0.25px"/><line x1="5.5" y1="16.4" x2="41" y2="16.4" style="fill:none;stroke:#dfe8f3;stroke-miterlimit:10;stroke-width:0.25px"/><line x1="5.5" y1="21.1" x2="41" y2="21.1" style="fill:none;stroke:#dfe8f3;stroke-miterlimit:10;stroke-width:0.25px"/><line x1="5.5" y1="26.3" x2="41" y2="26.3" style="fill:none;stroke:#dfe8f3;stroke-miterlimit:10;stroke-width:0.25px"/><line x1="5.5" y1="31.4" x2="41" y2="31.4" style="fill:none;stroke:#dfe8f3;stroke-miterlimit:10;stroke-width:0.25px"/><line x1="5.5" y1="36.6" x2="41" y2="36.6" style="fill:none;stroke:#dfe8f3;stroke-miterlimit:10;stroke-width:0.25px"/><line x1="10.7" y1="41.4" x2="10.7" y2="6" style="fill:none;stroke:#dfe8f3;stroke-miterlimit:10;stroke-width:0.25px"/><line x1="15.8" y1="41.5" x2="15.8" y2="6" style="fill:none;stroke:#dfe8f3;stroke-miterlimit:10;stroke-width:0.25px"/><line x1="20.5" y1="41.5" x2="20.5" y2="6" style="fill:none;stroke:#dfe8f3;stroke-miterlimit:10;stroke-width:0.25px"/><line x1="25.7" y1="41.5" x2="25.7" y2="6" style="fill:none;stroke:#dfe8f3;stroke-miterlimit:10;stroke-width:0.25px"/><line x1="30.9" y1="41.5" x2="30.9" y2="6" style="fill:none;stroke:#dfe8f3;stroke-miterlimit:10;stroke-width:0.25px"/><line x1="36" y1="41.5" x2="36" y2="6" style="fill:none;stroke:#dfe8f3;stroke-miterlimit:10;stroke-width:0.25px"/><path d="M0,0H46V46H0Z" style="fill:none"/><path d="M31.5,28.3l-2.3,3.5L24.6,33l-2.3-2.3H18.8l-6.2,1.2L9.1,29.6,13,25V21.5h5.2l4.2,3,4.5-3,9.2,6.9C36.1,28.3,31.5,28.3,31.5,28.3Z" style="fill:#25fdfc;stroke:#fff;stroke-miterlimit:10"/><path d="M36.1,28.3l-9.2-6.9-4.5,3-4.2-3H13l-2.9-1.7V17.4L9,16.2,7.8,17.4,6.6,16.2V11.6H9l2.3-1.2h2.3l3.5,2.3h3.5l4.6-2.3,3.5,3.5-3.5,3.5H31V15h3.5v1.2l1.2,1.2,1.2-1.2,3.5,3.5v3.5h-4v5.1Zm-9.8,7.4-1.2,1.2H24l.6-4-2.3-2.3H18.8l-6.2,1.2,7.9,4V38L24,40.3h2.3l1.2-1.2V36.8Z" style="fill:#25fdfc;stroke:#fff;stroke-miterlimit:10"/><circle cx="36.9" cy="20.4" r="1" style="fill:#1d9bfb"/><circle cx="22.4" cy="20.4" r="2" style="fill:#1d9bfb"/><circle cx="10.9" cy="14.4" r="1" style="fill:#1d9bfb"/><circle cx="15.9" cy="24.4" r="1" style="fill:#1d9bfb"/><circle cx="13.9" cy="28.4" r="1" style="fill:#1d9bfb"/><circle cx="25.9" cy="27.4" r="3" style="fill:#1d9bfb"/><circle cx="13.9" cy="17.4" r="1" style="fill:#1d9bfb"/><circle cx="20.9" cy="26.4" r="1" style="fill:#1d9bfb"/><circle cx="23.9" cy="14.4" r="1.5" style="fill:#1d9bfb"/><circle cx="30.9" cy="20.4" r="1" style="fill:#1d9bfb"/></svg>