<?xml version="1.0" encoding="utf-8"?>
<!-- Generator: Adobe Illustrator 16.0.0, SVG Export Plug-In . SVG Version: 6.00 Build 0)  -->
<!DOCTYPE svg PUBLIC "-//W3C//DTD SVG 1.1//EN" "http://www.w3.org/Graphics/SVG/1.1/DTD/svg11.dtd">
<svg version="1.1" id="Layer_1" xmlns="http://www.w3.org/2000/svg" xmlns:xlink="http://www.w3.org/1999/xlink" x="0px" y="0px"
	 width="1360px" height="1360px" viewBox="0 0 1360 1360" enable-background="new 0 0 1360 1360" xml:space="preserve">
<g>
	<path fill="#119DFF" d="M1247.981,867.856l-551.37-255.077c-10.847-5.012-23.357-5.012-34.201,0L111.045,867.856
		c-14.365,6.643-23.577,20.996-23.637,36.825c-0.055,15.818,9.052,30.241,23.37,36.994l551.362,259.917
		c5.507,2.591,11.436,3.887,17.374,3.887c5.929,0,11.867-1.296,17.363-3.887l551.37-259.917
		c14.313-6.753,23.425-21.176,23.37-36.994C1271.556,888.853,1262.342,874.499,1247.981,867.856z"/>
	<linearGradient id="SVGID_1_" gradientUnits="userSpaceOnUse" x1="730.8594" y1="916.4482" x2="860.6642" y2="991.3911">
		<stop  offset="0" style="stop-color:#119DFF"/>
		<stop  offset="0.4624" style="stop-color:#09FFFF"/>
	</linearGradient>
	<path fill="url(#SVGID_1_)" d="M763.471,859.964c39.777-20.916,73.551,0.519,91.382,18.35
		c17.828,17.828,39.952,52.288,18.342,91.374l-160.126,50.409L763.471,859.964z"/>
	<linearGradient id="SVGID_2_" gradientUnits="userSpaceOnUse" x1="730.8555" y1="617.0005" x2="860.6628" y2="691.9448">
		<stop  offset="0" style="stop-color:#119DFF"/>
		<stop  offset="0.4624" style="stop-color:#09FFFF"/>
	</linearGradient>
	<path fill="url(#SVGID_2_)" d="M763.463,560.523c39.779-20.916,73.559,0.512,91.39,18.342
		c17.828,17.828,39.944,52.296,18.337,91.382l-160.121,50.404L763.463,560.523z"/>
	<linearGradient id="SVGID_3_" gradientUnits="userSpaceOnUse" x1="1020.8477" y1="750.8975" x2="1150.6593" y2="825.8442">
		<stop  offset="0" style="stop-color:#119DFF"/>
		<stop  offset="0.4624" style="stop-color:#09FFFF"/>
	</linearGradient>
	<path fill="url(#SVGID_3_)" d="M1053.46,694.414c39.774-20.921,73.549,0.514,91.382,18.35
		c17.828,17.83,39.952,52.286,18.348,91.379l-160.131,50.406L1053.46,694.414z"/>
	<linearGradient id="SVGID_4_" gradientUnits="userSpaceOnUse" x1="1106.7236" y1="555.481" x2="1031.7769" y2="425.6693">
		<stop  offset="0.2366" style="stop-color:#119DFF"/>
		<stop  offset="0.9892" style="stop-color:#09FFFF"/>
	</linearGradient>
	<path fill="url(#SVGID_4_)" d="M1053.452,413.156c39.775-20.916,73.552,0.512,91.385,18.345
		c17.831,17.833,39.944,52.296,18.345,91.384l-160.126,50.402L1053.452,413.156z"/>
	<linearGradient id="SVGID_5_" gradientUnits="userSpaceOnUse" x1="426.6201" y1="677.7539" x2="556.4275" y2="752.6982">
		<stop  offset="0" style="stop-color:#119DFF"/>
		<stop  offset="0.4624" style="stop-color:#09FFFF"/>
	</linearGradient>
	<path fill="url(#SVGID_5_)" d="M459.229,621.274c39.775-20.918,73.552,0.509,91.382,18.342
		c17.833,17.833,39.95,52.291,18.345,91.382l-160.131,50.404L459.229,621.274z"/>
	<linearGradient id="SVGID_6_" gradientUnits="userSpaceOnUse" x1="156.9951" y1="821.8418" x2="286.8008" y2="896.7852">
		<stop  offset="0" style="stop-color:#119DFF"/>
		<stop  offset="0.4624" style="stop-color:#09FFFF"/>
	</linearGradient>
	<path fill="url(#SVGID_6_)" d="M189.604,765.361c39.775-20.921,73.549,0.51,91.382,18.343
		c17.828,17.828,39.942,52.286,18.342,91.382L139.2,925.49L189.604,765.361z"/>
	<linearGradient id="SVGID_7_" gradientUnits="userSpaceOnUse" x1="242.8691" y1="578.8198" x2="167.9248" y2="449.0125">
		<stop  offset="0.2366" style="stop-color:#119DFF"/>
		<stop  offset="0.9892" style="stop-color:#09FFFF"/>
	</linearGradient>
	<path fill="url(#SVGID_7_)" d="M189.604,436.496c39.77-20.916,73.549,0.512,91.382,18.345
		c17.828,17.828,39.939,52.291,18.342,91.382L139.2,596.626L189.604,436.496z"/>
	<linearGradient id="SVGID_8_" gradientUnits="userSpaceOnUse" x1="512.5" y1="309.6694" x2="437.5537" y2="179.8587">
		<stop  offset="0.2366" style="stop-color:#119DFF"/>
		<stop  offset="0.9892" style="stop-color:#09FFFF"/>
	</linearGradient>
	<path fill="url(#SVGID_8_)" d="M459.234,167.341c39.777-20.922,73.549,0.514,91.38,18.347
		c17.833,17.833,39.955,52.285,18.35,91.381l-160.138,50.404L459.234,167.341z"/>
	<linearGradient id="SVGID_9_" gradientUnits="userSpaceOnUse" x1="816.7344" y1="445.8296" x2="741.791" y2="316.0239">
		<stop  offset="0.2366" style="stop-color:#119DFF"/>
		<stop  offset="0.9892" style="stop-color:#09FFFF"/>
	</linearGradient>
	<path fill="url(#SVGID_9_)" d="M763.468,303.509c39.772-20.914,73.554,0.514,91.387,18.345
		c17.828,17.828,39.942,52.299,18.338,91.38l-160.126,50.409L763.468,303.509z"/>
</g>
</svg>
