<svg id="Layer_1" data-name="Layer 1" xmlns="http://www.w3.org/2000/svg" viewBox="0 0 60 60"><title>sunburst</title><g id="Layer_1-2" data-name="Layer 1-2"><circle cx="29.31" cy="31.08" r="14.14" style="fill:#09ffff"/><path d="M29.24,47.68A16.82,16.82,0,0,1,21,45.5l2.17-3.82A12.52,12.52,0,0,0,41.75,30.76h4.41A16.94,16.94,0,0,1,29.24,47.68Z" style="fill:#a6fff8"/><path d="M20.23,47.09a18.67,18.67,0,0,1,9.34-34.83V30.93" style="fill:#119dff"/><path d="M29.57,30.93H48.24A18.67,18.67,0,0,0,29.57,12.26V30.93" style="fill:#119dff"/><path d="M19.46,48.5A20,20,0,1,1,49,30.93H45.18A16.21,16.21,0,1,0,21.27,45.17Z" style="fill:#09ffff"/><path d="M29.29,31.31H17.19a12.1,12.1,0,0,1,12.1-12.1Z" style="fill:#09ffff"/><path d="M31.38,32.49,40,37.63a11.08,11.08,0,0,1-8.41,5.49l-.25-10.63" style="fill:#119dff"/><circle cx="29.61" cy="30.35" r="7.32" style="fill:#fff"/><circle cx="29.61" cy="30.35" r="3.1" style="fill:#119dff"/></g></svg>