<svg id="Layer_1" data-name="Layer 1" xmlns="http://www.w3.org/2000/svg" xmlns:xlink="http://www.w3.org/1999/xlink" viewBox="0 0 46 46"><defs><radialGradient id="radial-gradient" cx="36.94" cy="20.41" r="1" gradientUnits="userSpaceOnUse"><stop offset="0" stop-color="#269ffb"/><stop offset="1" stop-color="#1d9bfb" stop-opacity="0.1"/></radialGradient><radialGradient id="radial-gradient-2" cx="22.42" cy="20.41" r="2" xlink:href="#radial-gradient"/><radialGradient id="radial-gradient-3" cx="10.91" cy="14.41" r="1" xlink:href="#radial-gradient"/><radialGradient id="radial-gradient-4" cx="15.92" cy="24.42" r="1" xlink:href="#radial-gradient"/><radialGradient id="radial-gradient-5" cx="13.91" cy="28.42" r="1" xlink:href="#radial-gradient"/><radialGradient id="radial-gradient-6" cx="25.93" cy="27.42" r="3" xlink:href="#radial-gradient"/><radialGradient id="radial-gradient-7" cx="13.91" cy="17.41" r="1" xlink:href="#radial-gradient"/><radialGradient id="radial-gradient-8" cx="20.92" cy="26.42" r="1" xlink:href="#radial-gradient"/><radialGradient id="radial-gradient-9" cx="23.93" cy="14.41" r="1.5" xlink:href="#radial-gradient"/><radialGradient id="radial-gradient-10" cx="30.93" cy="20.41" r="1" xlink:href="#radial-gradient"/></defs><title>densitymapbox</title><rect x="5.48" y="6.05" width="35.48" height="35.48" style="fill:none;stroke:#dfe8f3;stroke-miterlimit:10;stroke-width:0.25px"/><line x1="5.48" y1="11.22" x2="40.96" y2="11.22" style="fill:none;stroke:#dfe8f3;stroke-miterlimit:10;stroke-width:0.25px"/><line x1="5.48" y1="16.4" x2="40.96" y2="16.4" style="fill:none;stroke:#dfe8f3;stroke-miterlimit:10;stroke-width:0.25px"/><line x1="5.48" y1="21.08" x2="40.96" y2="21.08" style="fill:none;stroke:#dfe8f3;stroke-miterlimit:10;stroke-width:0.25px"/><line x1="5.48" y1="26.25" x2="40.96" y2="26.25" style="fill:none;stroke:#dfe8f3;stroke-miterlimit:10;stroke-width:0.25px"/><line x1="5.48" y1="31.43" x2="40.96" y2="31.43" style="fill:none;stroke:#dfe8f3;stroke-miterlimit:10;stroke-width:0.25px"/><line x1="5.48" y1="36.6" x2="40.96" y2="36.6" style="fill:none;stroke:#dfe8f3;stroke-miterlimit:10;stroke-width:0.25px"/><line x1="10.65" y1="41.44" x2="10.65" y2="5.96" style="fill:none;stroke:#dfe8f3;stroke-miterlimit:10;stroke-width:0.25px"/><line x1="15.83" y1="41.53" x2="15.83" y2="6.05" style="fill:none;stroke:#dfe8f3;stroke-miterlimit:10;stroke-width:0.25px"/><line x1="20.51" y1="41.53" x2="20.51" y2="6.05" style="fill:none;stroke:#dfe8f3;stroke-miterlimit:10;stroke-width:0.25px"/><line x1="25.68" y1="41.53" x2="25.68" y2="6.05" style="fill:none;stroke:#dfe8f3;stroke-miterlimit:10;stroke-width:0.25px"/><line x1="30.86" y1="41.53" x2="30.86" y2="6.05" style="fill:none;stroke:#dfe8f3;stroke-miterlimit:10;stroke-width:0.25px"/><line x1="36.03" y1="41.53" x2="36.03" y2="6.05" style="fill:none;stroke:#dfe8f3;stroke-miterlimit:10;stroke-width:0.25px"/><path d="M0,0H46V46H0Z" style="fill:none"/><path d="M31.48,28.3l-2.3,3.45-4.6,1.15-2.31-2.3H18.82l-6.16,1.15-3.45-2.3,3.85-4.61V21.39h5.17l4.19,3,4.46-3,9.21,6.91Z" style="fill:#25fdfc;stroke:#fff;stroke-miterlimit:10"/><path d="M36.09,28.3l-9.21-6.91-4.46,3-4.19-3H13.06l-2.88-1.73v-2.3L9,16.21,7.88,17.36,6.73,16.21V11.6H9l2.31-1.15h2.3l3.45,2.3h3.46l4.6-2.3,3.46,3.46-3.46,3.45h5.76v-2.3h3.45v1.15l1.15,1.15,1.15-1.15,3.46,3.45v3.46h-4ZM26.3,35.78l-1.15,1.15H24l.58-4-2.31-2.3H18.82l-6.16,1.15,7.89,4v2.3L24,40.38h2.3l1.15-1.15v-2.3Z" style="fill:#25fdfc;stroke:#fff;stroke-miterlimit:10"/><circle cx="36.94" cy="20.41" r="1" style="fill:url(#radial-gradient)"/><circle cx="22.42" cy="20.41" r="2" style="fill:url(#radial-gradient-2)"/><circle cx="10.91" cy="14.41" r="1" style="fill:url(#radial-gradient-3)"/><circle cx="15.92" cy="24.42" r="1" style="fill:url(#radial-gradient-4)"/><circle cx="13.91" cy="28.42" r="1" style="fill:url(#radial-gradient-5)"/><circle cx="25.93" cy="27.42" r="3" style="fill:url(#radial-gradient-6)"/><circle cx="13.91" cy="17.41" r="1" style="fill:url(#radial-gradient-7)"/><circle cx="20.92" cy="26.42" r="1" style="fill:url(#radial-gradient-8)"/><circle cx="23.93" cy="14.41" r="1.5" style="fill:url(#radial-gradient-9)"/><circle cx="30.93" cy="20.41" r="1" style="fill:url(#radial-gradient-10)"/></svg>