<?xml version="1.0" encoding="utf-8"?>
<!-- Generator: Adobe Illustrator 16.0.0, SVG Export Plug-In . SVG Version: 6.00 Build 0)  -->
<!DOCTYPE svg PUBLIC "-//W3C//DTD SVG 1.1//EN" "http://www.w3.org/Graphics/SVG/1.1/DTD/svg11.dtd">
<svg version="1.1" id="Layer_1" xmlns="http://www.w3.org/2000/svg" xmlns:xlink="http://www.w3.org/1999/xlink" x="0px" y="0px"
	 width="1360px" height="1360px" viewBox="0 0 1360 1360" enable-background="new 0 0 1360 1360" xml:space="preserve">
<path fill="#09FFFF" d="M702.658,1295.469c-5.909,0-11.91-1.273-17.609-3.965l-559.677-263.837
	c-14.479-6.829-23.715-21.395-23.715-37.404V356.253c0-16.312,9.589-31.093,24.475-37.749L685.814,68.438
	c12.793-5.711,27.611-4.563,39.367,3.062c11.756,7.623,18.85,20.678,18.85,34.69V731.34c0,16.114-9.354,30.754-23.969,37.521
	L241.021,990.756l479.294,225.948c20.66,9.736,29.502,34.378,19.771,55.03C733.035,1286.695,718.167,1295.469,702.658,1295.469z
	 M184.354,383.068v542.804l476.984-220.946V169.952L184.354,383.068z"/>
<path fill="#09FFFF" d="M702.713,1295.469c-15.515,0-30.377-8.773-37.429-23.734c-9.736-20.652-0.889-45.294,19.765-55.03
	l479.295-225.948L685.302,768.86c-14.615-6.767-23.963-21.406-23.963-37.521V106.19c0-14.012,7.089-27.067,18.845-34.69
	c11.756-7.625,26.58-8.779,39.367-3.062l559.683,250.067c14.887,6.655,24.476,21.437,24.476,37.749v634.008
	c0,16.01-9.237,30.575-23.716,37.404l-559.678,263.837C714.617,1294.195,708.616,1295.469,702.713,1295.469z M744.031,704.926
	l476.979,220.952V383.069L744.031,169.952V704.926z"/>
<linearGradient id="SVGID_1_" gradientUnits="userSpaceOnUse" x1="569.6934" y1="609.2739" x2="490.8457" y2="472.7058">
	<stop  offset="0" style="stop-color:#09FFFF"/>
	<stop  offset="0.0575" style="stop-color:#0BE3FF"/>
	<stop  offset="0.135" style="stop-color:#0EC5FF"/>
	<stop  offset="0.2108" style="stop-color:#10AFFF"/>
	<stop  offset="0.2834" style="stop-color:#11A1FF"/>
	<stop  offset="0.3495" style="stop-color:#119DFF"/>
	<stop  offset="0.4591" style="stop-color:#10A4FF"/>
	<stop  offset="0.6137" style="stop-color:#0FB6FF"/>
	<stop  offset="0.7949" style="stop-color:#0CD4FF"/>
	<stop  offset="0.9951" style="stop-color:#09FEFF"/>
	<stop  offset="1" style="stop-color:#09FFFF"/>
</linearGradient>
<path fill="url(#SVGID_1_)" d="M260.692,770.274c-15.886,0-31.032-9.212-37.854-24.673c-9.193-20.843,0.204-45.183,21-54.457l0,0
	c0.815-0.369,82.487-37.934,159.691-137.073c11.965-19.586,76.511-113.551,207.528-107.458
	c79.605,3.699,126.375-9.453,161.124-91.65c8.885-21.036,33.155-30.877,54.18-21.986c21.036,8.891,30.876,33.144,21.986,54.185
	c-55.841,132.117-148.918,146.361-241.13,142.058c-92.273-4.328-132.827,67.379-133.227,68.101
	c-1.026,1.865-2.186,3.643-3.489,5.323C379.22,720.93,281.474,764.927,277.356,766.743
	C271.93,769.138,266.268,770.274,260.692,770.274z"/>
<linearGradient id="SVGID_2_" gradientUnits="userSpaceOnUse" x1="726.1318" y1="754.8135" x2="647.2607" y2="618.2047">
	<stop  offset="0.3817" style="stop-color:#119DFF"/>
	<stop  offset="0.9839" style="stop-color:#09FFFF"/>
</linearGradient>
<path fill="url(#SVGID_2_)" d="M417.123,915.811c-15.88,0-31.032-9.199-37.848-24.672c-9.199-20.844,0.21-45.196,21.012-54.457
	c1.653-0.753,82.876-38.441,159.671-137.068c11.966-19.578,76.364-113.594,207.537-107.457c79.61,3.711,126.38-9.453,161.123-91.65
	c8.885-21.042,33.155-30.872,54.179-21.993c21.041,8.891,30.884,33.155,21.993,54.186
	C948.948,664.815,855.89,679.053,763.647,674.762c-89.349-4.174-130.5,63.441-133.291,68.232c-1.075,2.012-2.013,3.364-3.427,5.192
	c-91.28,118.279-189.025,162.29-193.143,164.104C428.36,914.682,422.698,915.811,417.123,915.811z"/>
<linearGradient id="SVGID_3_" gradientUnits="userSpaceOnUse" x1="886.165" y1="896.4854" x2="807.2969" y2="759.8817">
	<stop  offset="0" style="stop-color:#09FFFF"/>
	<stop  offset="0.6022" style="stop-color:#119DFF"/>
</linearGradient>
<path fill="url(#SVGID_3_)" d="M577.159,1057.484c-15.886,0-31.032-9.213-37.854-24.673c-9.193-20.856,0.216-45.201,21.012-54.463
	c1.649-0.747,82.876-38.44,159.673-137.074c11.966-19.573,76.395-113.569,207.534-107.456
	c79.605,3.716,126.388-9.447,161.123-91.645c8.892-21.036,33.163-30.878,54.186-21.986c21.035,8.89,30.883,33.143,21.992,54.185
	c-55.845,132.117-148.904,146.354-241.141,142.058c-89.312-4.187-130.505,63.439-133.296,68.231
	c-1.075,2.013-2.013,3.364-3.427,5.192c-91.274,118.28-189.02,162.283-193.137,164.1
	C588.396,1056.348,582.735,1057.484,577.159,1057.484z"/>
</svg>
