<svg id="Layer_1" data-name="Layer 1" xmlns="http://www.w3.org/2000/svg" viewBox="0 0 46 46"><title>choroplethmapbox</title><rect x="5.5" y="6" width="35.5" height="35.5" style="fill:none;stroke:#dfe8f3;stroke-miterlimit:10;stroke-width:0.25px"/><line x1="5.5" y1="11.2" x2="41" y2="11.2" style="fill:none;stroke:#dfe8f3;stroke-miterlimit:10;stroke-width:0.25px"/><line x1="5.5" y1="16.4" x2="41" y2="16.4" style="fill:none;stroke:#dfe8f3;stroke-miterlimit:10;stroke-width:0.25px"/><line x1="5.5" y1="21.1" x2="41" y2="21.1" style="fill:none;stroke:#dfe8f3;stroke-miterlimit:10;stroke-width:0.25px"/><line x1="5.5" y1="26.3" x2="41" y2="26.3" style="fill:none;stroke:#dfe8f3;stroke-miterlimit:10;stroke-width:0.25px"/><line x1="5.5" y1="31.4" x2="41" y2="31.4" style="fill:none;stroke:#dfe8f3;stroke-miterlimit:10;stroke-width:0.25px"/><line x1="5.5" y1="36.6" x2="41" y2="36.6" style="fill:none;stroke:#dfe8f3;stroke-miterlimit:10;stroke-width:0.25px"/><line x1="10.7" y1="41.4" x2="10.7" y2="6" style="fill:none;stroke:#dfe8f3;stroke-miterlimit:10;stroke-width:0.25px"/><line x1="15.8" y1="41.5" x2="15.8" y2="6" style="fill:none;stroke:#dfe8f3;stroke-miterlimit:10;stroke-width:0.25px"/><line x1="20.5" y1="41.5" x2="20.5" y2="6" style="fill:none;stroke:#dfe8f3;stroke-miterlimit:10;stroke-width:0.25px"/><line x1="25.7" y1="41.5" x2="25.7" y2="6" style="fill:none;stroke:#dfe8f3;stroke-miterlimit:10;stroke-width:0.25px"/><line x1="30.9" y1="41.5" x2="30.9" y2="6" style="fill:none;stroke:#dfe8f3;stroke-miterlimit:10;stroke-width:0.25px"/><line x1="36" y1="41.5" x2="36" y2="6" style="fill:none;stroke:#dfe8f3;stroke-miterlimit:10;stroke-width:0.25px"/><path d="M0,0H46V46H0Z" style="fill:none"/><path d="M31.1,27.4l-2.2,3.3-4.4,1.1-2.2-2.2H19l-6,1.1L9.7,28.5l3.7-4.4V20.8h5l4,2.9,4.3-2.9,8.9,6.6Z" style="fill:#27d1f0;stroke:#fff;stroke-linecap:round;stroke-linejoin:round"/><path d="M35.5,27.4l-8.9-6.6-4.3,2.9-4-2.9h-5l-2.8-1.7V16.9L9.4,15.8,8.3,16.9,7.2,15.8V11.4H9.4l2.2-1.1h2.2l3.3,2.2h3.3l4.4-2.2,3.3,3.3L25,16.9h5.5V14.7h3.3v1.1l1.1,1.1L36,15.8l3.3,3.3v3.3H35.4v5Zm-9.4,7.2L25,35.7H23.9l.6-3.9-2.2-2.2H19l-6,1.1,7.6,3.9v2.2L23.9,39h2.2l1.1-1.1V35.7Z" style="fill:#1d9bfb;stroke:#fff;stroke-linecap:round;stroke-linejoin:round"/></svg>