<svg xmlns="http://www.w3.org/2000/svg" viewBox="0 0 62.8 59"><defs><style>.cls-1{fill:#09ffff;}.cls-2{fill:#a6fff8;}.cls-3{fill:#119dff;}.cls-4{fill:#fff;}</style></defs><title>sunburst</title><g id="Layer_2" data-name="Layer 2"><g id="Layer_1-2" data-name="Layer 1"><circle class="cls-1" cx="31.88" cy="31.65" r="22.2"/><path class="cls-2" d="M31.77,57.71a26.65,26.65,0,0,1-13-3.42l3.41-6A19.64,19.64,0,0,0,51.41,31.14h6.93A26.6,26.6,0,0,1,31.77,57.71Z"/><path class="cls-3" d="M17.63,56.78A29.31,29.31,0,0,1,32.29,2.09V31.4"/><path class="cls-3" d="M32.29,31.4H61.6A29.31,29.31,0,0,0,32.29,2.09V31.4"/><path class="cls-1" d="M16.42,59A31.4,31.4,0,1,1,62.8,31.4h-6A25.45,25.45,0,1,0,19.26,53.77Z"/><path class="cls-1" d="M31.86,32h-19a19,19,0,0,1,19-19Z"/><path class="cls-3" d="M35.14,33.86l13.59,8.07a17.43,17.43,0,0,1-13.21,8.62l-.38-16.69"/><circle class="cls-4" cx="32.36" cy="30.5" r="11.5"/><circle class="cls-3" cx="32.36" cy="30.5" r="4.87"/></g></g></svg>