<svg xmlns="http://www.w3.org/2000/svg" viewBox="0 0 46 46"><path fill="none" d="M0 0h46v46H0z"/><path fill="#25fdfc" stroke="#1d9bfb" stroke-miterlimit="10" stroke-width="2" d="M17.87 20.197l2.827-2.829 6.364 6.364-2.828 2.829z"/><path d="M27.06 26.56a6 6 0 0 0 0 8.486l8.486-8.485a6 6 0 0 0-8.485 0z" fill="#fff"/><path d="M27.06 26.56a6 6 0 0 0 0 8.486l8.486-8.485a6 6 0 0 0-8.485 0z" fill="none" stroke="#1d9bfb" stroke-linecap="round" stroke-linejoin="round" stroke-width="2"/><path fill="#fff" stroke="#1d9bfb" stroke-linecap="round" stroke-miterlimit="10" stroke-width="2" d="M31.303 30.803l1.415 1.415"/><path fill="#fff" stroke="#1d9bfb" stroke-miterlimit="10" stroke-width="2" d="M7.968 30.096l7.778-7.778 5.657 5.657-7.778 7.778zM19.8 23.482l-1.142 1.143"/><path fill="#25fdfc" stroke="#1d9bfb" stroke-miterlimit="10" d="M13.979 24.086l5.657 5.657M12.565 25.5l5.657 5.657M11.151 26.914l5.657 5.657M9.736 28.328l5.657 5.657"/><path fill="#fff" stroke="#1d9bfb" stroke-miterlimit="10" stroke-width="2" d="M36.254 13.125l-7.779 7.779-5.656-5.657 7.778-7.778zM24.232 19.49l1.414-1.415"/><path fill="#25fdfc" stroke="#1d9bfb" stroke-miterlimit="10" d="M24.586 13.479l5.657 5.657M26 12.065l5.657 5.657M27.414 10.651l5.657 5.657M28.828 9.236l5.657 5.657"/><path d="M16.454 15.954a2 2 0 0 1 2.829 0l1.414 1.414-2.829 2.829-1.414-1.415a2 2 0 0 1 0-2.828z" fill="none" stroke="#1d9bfb" stroke-miterlimit="10" stroke-width="2"/></svg>