<svg xmlns="http://www.w3.org/2000/svg" viewBox="0 0 46 46"><path fill="none" d="M0 0h46v46H0z"/><path fill="#1d9bfb" d="M8 8h16v6H8z"/><path fill="#fff" d="M8 14h16v6H8z"/><path fill="#1d9bfb" d="M8 20h16v6H8z"/><path fill="#fff" d="M8 26h16v6H8z"/><path fill="#1d9bfb" d="M8 32h16v6H8zM26 8h12v6H26z"/><path fill="#fff" d="M26 14h12v6H26z"/><path fill="#1d9bfb" d="M26 20h12v6H26z"/><path fill="#fff" d="M26 26h12v6H26z"/><path fill="#1d9bfb" d="M26 32h12v6H26z"/><path fill="none" stroke="#25fdfc" stroke-miterlimit="10" stroke-width="2" d="M21 11H11M21 23H11"/><path fill="none" stroke="#1d9bfb" stroke-miterlimit="10" stroke-width="2" d="M21 17H11M21 29H11"/><path fill="none" stroke="#25fdfc" stroke-miterlimit="10" stroke-width="2" d="M21 35H11M35 11h-6M35 23h-6"/><path fill="none" stroke="#1d9bfb" stroke-miterlimit="10" stroke-width="2" d="M35 17h-6M35 29h-6"/><path fill="none" stroke="#25fdfc" stroke-miterlimit="10" stroke-width="2" d="M35 35h-6"/><path fill="#1d9bfb" d="M24 8h2v30h-2z"/><path fill="#25fdfc" d="M24 8h2v6h-2zM24 20h2v6h-2zM24 32h2v6h-2z"/></svg>