<svg xmlns="http://www.w3.org/2000/svg" viewBox="0 0 46 46"><path fill="none" d="M0 0h46v46H0z"/><path fill="none" stroke="#1d9bfb" stroke-miterlimit="10" stroke-width="2" d="M23 24v16M11 12v24M35 6v29"/><path fill="#25fdfc" d="M8 19h6v10H8z"/><path d="M13 20v8H9v-8h4m2-2H7v12h8V18z" fill="#1d9bfb"/><path fill="#25fdfc" d="M20 27h6v4h-6z"/><path d="M25 28v2h-4v-2h4m2-2h-8v6h8v-6z" fill="#1d9bfb"/><path fill="#25fdfc" d="M32 15h6v14h-6z"/><path d="M37 16v12h-4V16h4m2-2h-8v16h8V14z" fill="#1d9bfb"/></svg>